<svg width="606" height="410" viewBox="0 0 606 410" fill="none" xmlns="http://www.w3.org/2000/svg">
<g filter="url(#filter0_di_39_50)">
<path d="M119.808 243.066C120.84 243.066 122.045 243.188 123.422 243.433C124.8 243.629 126.25 243.874 127.775 244.168C129.349 244.462 130.972 244.781 132.644 245.124C134.316 245.467 136.013 245.736 137.735 245.932C140.538 246.324 143.292 246.692 145.997 247.035C148.702 247.329 151.53 247.598 154.481 247.843C157.481 248.039 160.678 248.211 164.072 248.358C167.465 248.456 171.228 248.505 175.359 248.505C180.572 248.505 184.974 248.333 188.565 247.99C192.155 247.647 195.253 247.28 197.86 246.888C200.467 246.447 202.729 246.055 204.647 245.712C206.615 245.369 208.582 245.197 210.549 245.197C212.713 245.197 214.139 245.687 214.828 246.667C215.517 247.647 215.861 249.019 215.861 250.784C215.861 252.401 215.787 254.385 215.64 256.737C215.492 259.041 215.295 261.442 215.049 263.941C214.803 266.44 214.484 268.939 214.09 271.438C213.746 273.889 213.353 276.094 212.91 278.054C212.516 280.014 212.074 281.607 211.582 282.832C211.09 284.057 210.598 284.645 210.107 284.596C209.516 284.596 209.098 283.591 208.852 281.582C208.656 279.524 208.434 276.535 208.188 272.614C208.041 269.723 207.697 267.175 207.156 264.97C206.615 262.716 205.803 260.805 204.721 259.237C203.639 257.668 202.237 256.394 200.516 255.414C198.795 254.434 196.655 253.724 194.098 253.283C191.983 252.891 189.548 252.646 186.794 252.548C184.089 252.45 181.286 252.401 178.384 252.401V347.222C178.384 352.416 178.679 356.63 179.269 359.865C179.909 363.099 180.695 365.672 181.63 367.583C182.614 369.494 183.671 370.866 184.802 371.699C185.983 372.532 187.114 373.169 188.196 373.61C188.933 373.904 189.819 374.149 190.852 374.345C191.884 374.541 192.966 374.713 194.098 374.86C195.229 375.007 196.335 375.105 197.417 375.154C198.549 375.252 199.557 375.325 200.442 375.374C202.409 375.472 203.959 375.619 205.09 375.815C206.221 376.011 206.787 376.526 206.787 377.359C206.787 377.702 206.688 378.045 206.492 378.388C206.295 378.731 205.926 379.025 205.385 379.27C204.844 379.564 204.057 379.785 203.024 379.932C202.041 380.128 200.737 380.226 199.114 380.226C196.606 380.226 194.147 380.177 191.737 380.079C189.327 379.981 186.892 379.932 184.433 379.932C180.695 379.932 177.081 380.177 173.589 380.667C170.097 381.206 166.654 381.99 163.26 383.019C159.867 384.048 156.448 385.322 153.006 386.841C149.563 388.409 146.046 390.222 142.456 392.28C141.325 392.966 140.169 393.579 138.989 394.118C137.858 394.706 136.948 395 136.259 395C135.62 395 135.3 394.681 135.3 394.044C135.3 393.505 135.669 392.868 136.407 392.133C137.194 391.447 138.202 390.639 139.431 389.708C140.661 388.826 142.063 387.772 143.636 386.547C145.259 385.322 146.932 383.925 148.653 382.357C151.112 380.054 153.079 377.775 154.555 375.521C156.08 373.267 157.26 370.915 158.096 368.465C158.981 366.015 159.596 363.417 159.94 360.673C160.334 357.88 160.604 354.817 160.752 351.485L165.695 252.254C163.383 252.205 161.441 252.18 159.867 252.18C158.342 252.131 156.916 252.107 155.588 252.107C154.26 252.107 152.907 252.107 151.53 252.107C150.202 252.107 148.628 252.107 146.809 252.107C143.415 252.107 140.538 252.278 138.177 252.621C135.816 252.915 133.825 253.356 132.202 253.944C130.628 254.532 129.398 255.292 128.513 256.223C127.628 257.105 126.939 258.158 126.447 259.384C126.005 260.56 125.734 261.883 125.636 263.353C125.537 264.823 125.488 266.44 125.488 268.204C125.488 270.115 125.587 272.1 125.783 274.158C126.029 276.167 126.324 278.152 126.669 280.112C127.013 282.072 127.382 283.934 127.775 285.698C128.169 287.413 128.562 288.957 128.955 290.329C129.3 291.603 129.619 292.73 129.915 293.71C130.21 294.69 130.357 295.523 130.357 296.21C130.357 296.455 130.283 296.749 130.136 297.092C130.038 297.435 129.767 297.606 129.324 297.606C128.685 297.606 127.996 297.141 127.259 296.21C126.57 295.278 125.882 294.053 125.193 292.534C124.504 290.966 123.816 289.202 123.127 287.242C122.439 285.282 121.775 283.273 121.135 281.215C120.545 279.107 119.98 277.049 119.439 275.04C118.898 272.982 118.406 271.12 117.963 269.454C116.881 265.288 116.07 261.442 115.529 257.913C115.037 254.385 114.791 251.543 114.791 249.387C114.791 247.427 115.111 245.883 115.75 244.756C116.439 243.629 117.791 243.066 119.808 243.066Z" fill="#FFE600"/>
<path d="M239.498 280.553C239.498 281.141 239.473 281.974 239.424 283.052C239.375 284.081 239.35 285.159 239.35 286.286C239.35 287.707 239.424 289.227 239.572 290.844C239.768 292.412 239.99 293.882 240.236 295.254C240.531 296.577 240.801 297.704 241.047 298.635C241.342 299.517 241.588 299.958 241.785 299.958C241.982 299.958 242.252 299.248 242.596 297.827C242.99 296.406 243.531 294.617 244.219 292.461C244.957 290.305 245.892 288.001 247.023 285.551C248.154 283.052 249.605 280.724 251.376 278.568C253.146 276.412 255.261 274.624 257.72 273.202C260.228 271.781 263.179 271.071 266.573 271.071C269.721 271.071 272.352 271.61 274.467 272.688C276.631 273.766 278.352 275.114 279.631 276.731C280.91 278.348 281.819 280.112 282.36 282.023C282.901 283.885 283.172 285.649 283.172 287.315C283.172 289.913 282.828 292.191 282.139 294.151C281.451 296.062 280.516 297.655 279.336 298.929C278.205 300.203 276.901 301.183 275.426 301.869C273.95 302.506 272.45 302.825 270.926 302.825C268.122 302.825 265.835 302.163 264.065 300.84C262.294 299.517 261.409 297.582 261.409 295.033C261.409 293.661 261.581 292.485 261.925 291.505C262.319 290.525 262.81 289.692 263.401 289.006C264.04 288.32 264.778 287.756 265.614 287.315C266.499 286.825 267.458 286.433 268.491 286.139C270.606 285.502 272.032 284.718 272.77 283.787C273.557 282.856 273.95 281.778 273.95 280.553C273.95 279.818 273.803 279.107 273.508 278.421C273.262 277.735 272.819 277.123 272.18 276.584C271.59 275.996 270.803 275.53 269.819 275.187C268.884 274.844 267.729 274.673 266.352 274.673C263.548 274.673 261.089 275.334 258.974 276.657C256.859 277.931 255.015 279.671 253.441 281.876C251.867 284.032 250.564 286.531 249.531 289.374C248.498 292.216 247.662 295.205 247.023 298.341C246.384 301.428 245.916 304.565 245.621 307.75C245.375 310.886 245.252 313.826 245.252 316.57C245.252 319.07 245.351 321.789 245.547 324.729C245.744 327.621 245.99 330.536 246.285 333.476C246.629 336.417 246.998 339.283 247.392 342.077C247.785 344.87 248.154 347.418 248.498 349.721C248.892 352.024 249.236 354.009 249.531 355.675C249.826 357.341 250.048 358.493 250.195 359.13C250.736 361.335 251.572 362.878 252.703 363.76C253.884 364.594 255.433 365.01 257.351 365.01C258.187 365.01 259.048 364.986 259.933 364.937C260.868 364.888 261.556 364.863 261.999 364.863C263.327 364.863 263.991 365.353 263.991 366.333C263.991 367.117 263.622 367.632 262.884 367.877C262.294 368.122 261.237 368.269 259.712 368.318C258.236 368.367 256.491 368.416 254.474 368.465C252.507 368.514 250.367 368.587 248.056 368.685C245.744 368.783 243.506 368.955 241.342 369.2C238.932 369.494 236.596 369.91 234.334 370.449C232.071 370.939 229.981 371.429 228.063 371.919C226.145 372.361 224.448 372.753 222.973 373.096C221.497 373.439 220.317 373.61 219.432 373.61C218.497 373.61 217.858 373.414 217.513 373.022C217.169 372.63 216.997 372.214 216.997 371.772C216.997 371.037 217.292 370.523 217.882 370.229C218.522 369.886 219.382 369.543 220.464 369.2C221.3 368.955 222.284 368.71 223.415 368.465C224.596 368.171 225.973 367.681 227.547 366.995C229.12 366.309 230.202 365.402 230.793 364.275C231.432 363.099 231.752 361.335 231.752 358.983C231.752 358.248 231.703 357.023 231.604 355.307C231.506 353.543 231.358 351.461 231.162 349.059C231.014 346.658 230.817 344.037 230.571 341.194C230.375 338.303 230.153 335.363 229.907 332.374C229.661 329.336 229.391 326.322 229.096 323.333C228.85 320.344 228.604 317.55 228.358 314.953C228.112 312.307 227.866 309.955 227.62 307.897C227.424 305.839 227.252 304.197 227.104 302.972C226.907 301.502 226.612 300.35 226.219 299.517C225.825 298.635 225.358 297.974 224.817 297.533C224.276 297.092 223.637 296.822 222.899 296.724C222.21 296.577 221.448 296.504 220.612 296.504H217.587C217.341 296.504 217.022 296.504 216.628 296.504C216.284 296.455 215.94 296.381 215.595 296.283C215.251 296.136 214.956 295.94 214.71 295.695C214.513 295.45 214.415 295.131 214.415 294.739C214.415 294.2 214.636 293.808 215.079 293.563C215.522 293.318 216.063 293.147 216.702 293.049C219.161 292.755 221.374 292.338 223.342 291.799C225.358 291.26 227.325 290.28 229.243 288.859C230.424 287.928 231.653 286.703 232.932 285.184C234.26 283.616 235.342 281.974 236.178 280.259C236.768 279.034 237.408 278.421 238.096 278.421C238.736 278.421 239.129 278.666 239.277 279.156C239.424 279.646 239.498 280.112 239.498 280.553Z" fill="#FFE600"/>
<path d="M341.925 335.388C342.614 336.515 343.229 338.034 343.77 339.945C344.36 341.856 344.655 343.792 344.655 345.752C344.655 349.329 344.065 352.539 342.884 355.381C341.704 358.174 340.007 360.551 337.794 362.511C335.581 364.422 332.9 365.892 329.753 366.921C326.654 367.95 323.162 368.465 319.277 368.465C313.67 368.465 308.653 367.534 304.227 365.672C299.85 363.76 296.161 361.114 293.161 357.733C290.161 354.352 287.874 350.334 286.3 345.678C284.726 340.974 283.939 335.829 283.939 330.242C283.939 325.195 284.48 320.613 285.562 316.497C286.644 312.381 288.12 308.705 289.989 305.471C291.858 302.237 294.022 299.419 296.481 297.018C298.94 294.617 301.547 292.632 304.301 291.064C307.055 289.496 309.858 288.344 312.711 287.609C315.564 286.825 318.318 286.433 320.974 286.433C323.58 286.433 326.285 286.776 329.089 287.462C331.892 288.148 334.45 289.325 336.761 290.991C339.122 292.657 341.04 294.862 342.516 297.606C344.04 300.301 344.803 303.707 344.803 307.823C344.803 311.401 344.261 314.537 343.179 317.232C342.147 319.927 340.77 322.255 339.048 324.215C337.327 326.175 335.359 327.792 333.146 329.066C330.982 330.34 328.744 331.369 326.433 332.153C324.17 332.888 321.933 333.403 319.719 333.697C317.555 333.991 315.637 334.138 313.965 334.138C311.555 334.138 309.194 333.966 306.883 333.623C304.62 333.28 302.85 332.913 301.571 332.521C301.768 336.343 302.358 340.043 303.342 343.62C304.375 347.148 305.825 350.26 307.694 352.955C309.563 355.65 311.875 357.807 314.629 359.424C317.432 361.041 320.703 361.849 324.441 361.849C327.048 361.849 329.285 361.408 331.154 360.526C333.072 359.644 334.646 358.468 335.876 356.998C337.105 355.479 338.015 353.739 338.606 351.779C339.196 349.819 339.491 347.761 339.491 345.605C339.491 344.331 339.392 343.008 339.196 341.635C339.048 340.263 338.753 338.965 338.31 337.74C338.015 337.005 337.769 336.319 337.573 335.682C337.376 335.045 337.278 334.53 337.278 334.138C337.278 333.158 337.72 332.668 338.606 332.668C339.048 332.668 339.565 332.888 340.155 333.329C340.794 333.77 341.384 334.457 341.925 335.388ZM301.276 327.67C302.555 328.062 304.006 328.405 305.629 328.699C307.252 328.944 309.293 329.066 311.752 329.066C314.604 329.066 317.236 328.527 319.646 327.449C322.056 326.371 324.121 324.876 325.843 322.965C327.564 321.005 328.917 318.653 329.9 315.909C330.884 313.165 331.376 310.102 331.376 306.721C331.376 303.731 331.031 301.232 330.343 299.223C329.703 297.165 328.843 295.523 327.761 294.298C326.679 293.073 325.425 292.216 323.998 291.726C322.621 291.187 321.195 290.917 319.719 290.917C317.851 290.917 315.834 291.481 313.67 292.608C311.506 293.735 309.49 295.695 307.621 298.488C305.801 301.281 304.276 305.055 303.047 309.808C301.866 314.512 301.276 320.466 301.276 327.67Z" fill="#FFE600"/>
<path d="M377.514 321.348C375.694 321.348 373.973 321.005 372.35 320.319C370.776 319.633 369.399 318.604 368.218 317.232C367.038 315.86 366.103 314.145 365.415 312.087C364.726 310.028 364.382 307.603 364.382 304.81C364.382 301.771 364.8 298.807 365.636 295.915C366.521 292.975 367.874 290.378 369.694 288.124C371.513 285.821 373.825 283.983 376.628 282.611C379.481 281.239 382.899 280.553 386.883 280.553C390.178 280.553 393.08 280.994 395.588 281.876C398.146 282.709 400.384 283.861 402.302 285.331C404.22 286.752 405.843 288.418 407.171 290.329C408.548 292.24 409.704 294.249 410.638 296.357C411.573 298.415 412.335 300.522 412.925 302.678C413.564 304.785 414.105 306.794 414.548 308.705C414.794 309.783 415.089 311.327 415.433 313.336C415.827 315.296 416.245 317.575 416.688 320.172C417.13 322.769 417.597 325.562 418.089 328.552C418.581 331.492 419.073 334.481 419.565 337.519C420.057 340.557 420.524 343.522 420.966 346.413C421.458 349.255 421.901 351.877 422.294 354.278C422.688 356.63 423.008 358.664 423.253 360.379C423.549 362.045 423.77 363.197 423.917 363.834C424.212 365.353 424.532 366.897 424.876 368.465C425.27 370.033 425.737 371.478 426.278 372.802C426.868 374.076 427.581 375.129 428.418 375.962C429.254 376.795 430.311 377.212 431.59 377.212C432.328 377.212 432.967 377.04 433.508 376.697C434.049 376.354 434.467 375.889 434.762 375.301C435.106 374.713 435.352 374.051 435.5 373.316C435.647 372.581 435.721 371.821 435.721 371.037C435.721 370.106 435.697 369.175 435.647 368.244C435.598 367.264 435.574 366.431 435.574 365.745C435.574 365.01 435.672 364.373 435.869 363.834C436.065 363.295 436.459 363.025 437.049 363.025C437.59 363.025 438.008 363.344 438.303 363.981C438.648 364.569 438.893 365.28 439.041 366.113C439.238 366.897 439.361 367.705 439.41 368.538C439.459 369.322 439.484 369.91 439.484 370.302C439.484 372.017 439.336 373.953 439.041 376.109C438.746 378.265 438.131 380.348 437.197 382.357C436.311 384.415 434.836 386.106 432.77 387.429C430.705 388.752 428.319 389.414 425.614 389.414C423.253 389.414 421.212 389.071 419.491 388.385C417.819 387.699 416.368 386.841 415.138 385.812C413.958 384.783 412.95 383.68 412.114 382.504C411.327 381.328 410.687 380.226 410.195 379.196C408.818 376.55 407.761 373.659 407.023 370.523C406.335 367.338 405.769 364.299 405.326 361.408C404.589 362.633 403.457 364.152 401.933 365.966C400.457 367.779 398.613 369.518 396.4 371.184C394.187 372.851 391.629 374.272 388.727 375.448C385.826 376.624 382.604 377.212 379.063 377.212C375.128 377.212 371.759 376.648 368.956 375.521C366.202 374.443 363.939 372.973 362.169 371.111C360.398 369.2 359.095 366.995 358.259 364.495C357.423 361.947 357.005 359.252 357.005 356.41C357.005 353.372 357.57 350.309 358.701 347.222C359.833 344.135 361.677 341.341 364.234 338.842C366.841 336.343 370.21 334.31 374.341 332.741C378.522 331.173 383.612 330.389 389.613 330.389C390.99 330.389 392.318 330.463 393.596 330.61C394.924 330.708 396.105 330.83 397.138 330.977C398.22 331.124 399.129 331.271 399.867 331.418C400.654 331.565 401.22 331.663 401.564 331.712C401.269 327.498 400.9 323.284 400.457 319.07C400.261 317.305 400.039 315.443 399.793 313.483C399.597 311.523 399.375 309.563 399.129 307.603C398.884 305.594 398.613 303.633 398.318 301.722C398.023 299.811 397.703 298.023 397.359 296.357C396.572 292.583 395.023 289.594 392.711 287.389C390.449 285.135 387.547 284.008 384.006 284.008C382.088 284.008 380.391 284.351 378.915 285.037C377.489 285.723 376.26 286.605 375.227 287.683C374.243 288.761 373.505 289.986 373.014 291.358C372.522 292.681 372.276 294.004 372.276 295.327C372.276 296.749 372.62 297.949 373.309 298.929C373.997 299.86 374.833 300.693 375.817 301.428C376.85 302.163 377.956 302.874 379.137 303.56C380.317 304.197 381.399 304.957 382.383 305.839C383.416 306.672 384.276 307.701 384.965 308.926C385.653 310.102 385.998 311.597 385.998 313.41C385.998 315.811 385.162 317.746 383.489 319.217C381.866 320.638 379.875 321.348 377.514 321.348ZM402.154 336.27C401.81 336.123 401.195 335.951 400.31 335.755C399.474 335.51 398.465 335.29 397.285 335.094C396.105 334.849 394.826 334.653 393.449 334.506C392.121 334.359 390.793 334.285 389.465 334.285C386.858 334.285 384.424 334.653 382.161 335.388C379.948 336.123 378.03 337.225 376.407 338.695C374.784 340.116 373.505 341.93 372.571 344.135C371.636 346.291 371.169 348.79 371.169 351.632C371.169 354.229 371.587 356.385 372.423 358.101C373.309 359.767 374.415 361.09 375.743 362.07C377.12 363.05 378.62 363.736 380.243 364.128C381.916 364.52 383.539 364.716 385.112 364.716C387.621 364.716 390.006 364.324 392.268 363.54C394.531 362.756 396.523 361.849 398.244 360.82C399.966 359.791 401.367 358.787 402.449 357.807C403.531 356.826 404.195 356.165 404.441 355.822C404.097 352.539 403.777 349.55 403.482 346.854C403.335 345.678 403.187 344.527 403.039 343.4C402.941 342.273 402.818 341.219 402.671 340.239C402.572 339.259 402.474 338.426 402.375 337.74C402.277 337.054 402.203 336.564 402.154 336.27Z" fill="#FFE600"/>
<path d="M440.398 294.739C441.53 294.347 443.005 293.98 444.825 293.637C446.694 293.245 448.489 292.853 450.21 292.461C453.702 291.628 456.604 290.501 458.916 289.08C461.227 287.658 463.17 285.919 464.744 283.861C466.367 281.754 467.744 279.352 468.875 276.657C470.006 273.913 471.137 270.801 472.269 267.322C473.252 264.284 474.236 262.152 475.22 260.927C476.252 259.653 477.384 259.016 478.613 259.016C479.744 259.016 480.531 259.433 480.974 260.266C481.417 261.099 481.638 262.201 481.638 263.573C481.638 264.896 481.417 266.612 480.974 268.719C480.531 270.777 480.015 272.957 479.425 275.261C478.884 277.564 478.392 279.842 477.949 282.097C477.507 284.302 477.285 286.237 477.285 287.903C477.285 288.688 477.433 289.398 477.728 290.035C478.072 290.623 478.736 290.917 479.72 290.917C480.31 290.917 481.023 290.868 481.859 290.77C482.695 290.672 483.581 290.574 484.515 290.476C485.45 290.378 486.409 290.28 487.392 290.182C488.425 290.084 489.384 290.035 490.269 290.035C492.384 290.035 493.442 290.697 493.442 292.02C493.442 292.706 493.171 293.196 492.63 293.49C492.089 293.784 491.351 293.931 490.417 293.931C489.728 293.931 488.892 293.955 487.909 294.004C486.925 294.053 485.868 294.176 484.736 294.372C483.605 294.519 482.474 294.739 481.343 295.033C480.212 295.327 479.154 295.719 478.171 296.21C476.793 296.896 475.662 297.753 474.777 298.782C473.941 299.811 473.252 300.865 472.711 301.943C471.875 303.658 470.99 306.01 470.055 308.999C469.121 311.989 468.26 315.321 467.473 318.996C466.686 322.622 466.022 326.444 465.481 330.463C464.99 334.432 464.744 338.279 464.744 342.003C464.744 347.246 465.186 351.755 466.072 355.528C466.957 359.252 468.186 362.339 469.76 364.79C471.334 367.24 473.203 369.053 475.367 370.229C477.531 371.356 479.867 371.919 482.376 371.919C484.343 371.919 486.015 371.65 487.392 371.111C488.769 370.523 489.901 369.788 490.786 368.906C491.671 367.975 492.31 366.97 492.704 365.892C493.097 364.765 493.294 363.662 493.294 362.584C493.294 361.261 492.925 360.159 492.188 359.277C491.499 358.346 490.712 357.464 489.827 356.63C488.941 355.797 488.13 354.891 487.392 353.911C486.704 352.931 486.359 351.657 486.359 350.089C486.359 348.128 486.974 346.487 488.204 345.164C489.483 343.841 491.228 343.179 493.442 343.179C494.425 343.179 495.36 343.351 496.245 343.694C497.18 344.037 497.991 344.6 498.68 345.384C499.417 346.168 500.008 347.173 500.45 348.398C500.893 349.574 501.114 350.995 501.114 352.661C501.114 355.552 500.672 358.444 499.786 361.335C498.901 364.177 497.499 366.75 495.581 369.053C493.663 371.307 491.179 373.145 488.13 374.566C485.081 376.036 481.367 376.771 476.99 376.771C472.072 376.771 467.646 375.766 463.711 373.757C459.776 371.699 456.629 368.93 454.268 365.451C452.153 362.217 450.604 358.566 449.62 354.499C448.636 350.383 448.145 346.217 448.145 342.003C448.145 337.103 448.514 332.374 449.251 327.817C449.989 323.21 450.801 319.045 451.686 315.321C452.571 311.548 453.383 308.313 454.12 305.618C454.858 302.874 455.227 300.889 455.227 299.664C455.227 298.782 454.981 298.243 454.489 298.047C453.997 297.851 453.333 297.753 452.497 297.753C452.005 297.753 451.317 297.778 450.432 297.827C449.596 297.876 448.661 297.925 447.628 297.974C446.595 298.023 445.513 298.072 444.382 298.121C443.251 298.17 442.169 298.194 441.136 298.194C439.316 298.194 438.407 297.68 438.407 296.651C438.407 295.817 439.07 295.18 440.398 294.739Z" fill="#FFE600"/>
<path d="M539.727 371.184C542.875 371.184 545.187 372.14 546.662 374.051C548.187 375.962 548.949 378.314 548.949 381.108C548.949 382.823 548.654 384.244 548.064 385.371C547.523 386.498 546.834 387.38 545.998 388.017C545.211 388.654 544.375 389.095 543.49 389.34C542.604 389.585 541.818 389.708 541.129 389.708C539.703 389.708 538.399 389.414 537.219 388.826C536.088 388.287 535.104 387.527 534.268 386.547C533.432 385.616 532.768 384.538 532.276 383.313C531.833 382.088 531.612 380.814 531.612 379.49C531.612 377.187 532.276 375.227 533.604 373.61C534.981 371.993 537.022 371.184 539.727 371.184ZM553.375 249.387C558.49 249.387 563.335 250.048 567.909 251.372C572.483 252.646 576.467 254.63 579.86 257.325C583.303 259.972 586.008 263.353 587.975 267.469C589.992 271.536 591 276.363 591 281.95C591 285.87 590.533 289.423 589.598 292.608C588.664 295.744 587.336 298.66 585.615 301.355C583.893 304.001 581.778 306.476 579.27 308.779C576.811 311.033 574.007 313.214 570.86 315.321C567.565 317.526 564.319 319.584 561.122 321.495C557.974 323.357 554.974 325.17 552.121 326.935C549.269 328.65 546.637 330.365 544.227 332.08C541.867 333.746 539.801 335.51 538.03 337.372C536.309 339.185 534.957 341.145 533.973 343.253C532.989 345.311 532.497 347.589 532.497 350.089C532.497 351.657 532.694 353.004 533.088 354.131C533.481 355.209 533.973 356.116 534.563 356.851C535.203 357.586 535.916 358.125 536.703 358.468C537.539 358.811 538.399 358.983 539.285 358.983C540.317 358.983 541.178 358.787 541.867 358.395C542.555 357.954 543.121 357.439 543.564 356.851C544.006 356.214 544.326 355.552 544.523 354.866C544.719 354.18 544.842 353.543 544.891 352.955C544.99 352.122 545.088 351.485 545.187 351.044C545.285 350.603 545.531 350.383 545.924 350.383C546.318 350.383 546.613 350.677 546.81 351.265C547.055 351.804 547.178 352.514 547.178 353.396C547.178 354.572 547.006 355.699 546.662 356.777C546.318 357.856 545.801 358.811 545.113 359.644C544.424 360.428 543.514 361.065 542.383 361.555C541.252 362.045 539.924 362.29 538.399 362.29C536.973 362.29 535.571 362.07 534.194 361.629C532.817 361.139 531.588 360.379 530.506 359.35C529.424 358.321 528.538 356.998 527.85 355.381C527.21 353.764 526.891 351.804 526.891 349.501C526.891 346.119 527.53 343.032 528.809 340.239C530.088 337.397 531.76 334.702 533.825 332.153C535.94 329.605 538.326 327.131 540.981 324.729C543.637 322.328 546.367 319.878 549.17 317.379C551.974 314.88 554.703 312.283 557.359 309.587C560.015 306.843 562.376 303.879 564.441 300.693C566.556 297.459 568.253 293.955 569.532 290.182C570.811 286.36 571.45 282.097 571.45 277.392C571.45 274.354 571.057 271.34 570.27 268.351C569.483 265.362 568.204 262.691 566.433 260.339C564.712 257.987 562.425 256.076 559.572 254.606C556.769 253.136 553.326 252.401 549.244 252.401C546.096 252.401 543.318 252.866 540.908 253.797C538.498 254.679 536.457 255.904 534.784 257.472C533.161 258.992 531.907 260.78 531.022 262.838C530.186 264.847 529.768 266.979 529.768 269.233C529.768 271.487 530.088 273.521 530.727 275.334C531.366 277.098 532.178 278.764 533.161 280.332C534.145 281.852 535.203 283.297 536.334 284.669C537.465 286.041 538.522 287.462 539.506 288.933C540.49 290.403 541.301 291.971 541.94 293.637C542.58 295.254 542.9 297.067 542.9 299.076C542.9 300.546 542.654 302.016 542.162 303.486C541.719 304.908 540.981 306.206 539.949 307.382C538.916 308.558 537.588 309.514 535.965 310.249C534.342 310.935 532.375 311.278 530.063 311.278C524.407 311.278 520.202 309.318 517.448 305.398C514.693 301.428 513.316 295.866 513.316 288.712C513.316 286.164 513.611 283.444 514.202 280.553C514.792 277.613 515.751 274.697 517.079 271.806C518.407 268.866 520.103 266.048 522.169 263.353C524.235 260.658 526.743 258.281 529.694 256.223C532.694 254.165 536.137 252.523 540.022 251.298C543.957 250.024 548.408 249.387 553.375 249.387Z" fill="#FFE600"/>
<path d="M297.794 227.445C297.794 222.762 298.528 218.538 299.997 214.775C301.466 210.97 303.544 207.729 306.23 205.053C308.916 202.376 312.147 200.328 315.925 198.906C319.744 197.442 323.962 196.71 328.578 196.71C332.733 196.71 336.552 197.4 340.036 198.78C343.561 200.16 346.604 202.147 349.164 204.739C351.724 207.29 353.718 210.405 355.145 214.085C356.613 217.723 357.348 221.821 357.348 226.379C357.348 231.773 356.446 236.394 354.641 240.241C352.878 244.088 350.591 247.245 347.779 249.712C345.009 252.179 341.903 253.998 338.462 255.169C335.02 256.298 331.642 256.863 328.326 256.863C324.339 256.863 320.499 256.215 316.806 254.918C313.155 253.58 309.923 251.657 307.111 249.148C304.299 246.639 302.033 243.565 300.312 239.927C298.633 236.248 297.794 232.087 297.794 227.445ZM327.697 199.157C325.305 199.157 323.227 199.763 321.464 200.976C319.744 202.147 318.317 203.756 317.184 205.805C316.05 207.813 315.211 210.175 314.665 212.893C314.162 215.569 313.91 218.392 313.91 221.361C313.91 223.828 314.057 226.316 314.351 228.825C314.644 231.334 315.085 233.759 315.673 236.101C316.302 238.401 317.058 240.575 317.939 242.624C318.862 244.632 319.954 246.388 321.213 247.893C322.472 249.399 323.899 250.59 325.493 251.469C327.13 252.305 328.935 252.723 330.907 252.723C333.468 252.723 335.608 252.159 337.329 251.03C339.091 249.859 340.497 248.353 341.547 246.513C342.596 244.632 343.33 242.541 343.75 240.241C344.212 237.899 344.442 235.558 344.442 233.216C344.442 227.445 344.023 222.427 343.183 218.162C342.344 213.897 341.169 210.363 339.658 207.562C338.147 204.718 336.363 202.606 334.307 201.227C332.292 199.847 330.089 199.157 327.697 199.157Z" fill="#FFE600"/>
<path d="M381.9 185.922C381.9 186.424 381.879 187.135 381.837 188.054C381.795 188.933 381.774 189.853 381.774 190.814C381.774 192.027 381.837 193.323 381.963 194.703C382.131 196.041 382.32 197.296 382.529 198.467C382.781 199.596 383.012 200.557 383.222 201.352C383.474 202.105 383.684 202.481 383.851 202.481C384.019 202.481 384.25 201.875 384.544 200.662C384.88 199.449 385.341 197.923 385.929 196.083C386.558 194.243 387.356 192.278 388.321 190.187C389.286 188.054 390.524 186.068 392.035 184.228C393.546 182.388 395.351 180.862 397.449 179.649C399.59 178.437 402.108 177.83 405.004 177.83C407.69 177.83 409.935 178.29 411.74 179.21C413.586 180.13 415.055 181.28 416.147 182.66C417.238 184.04 418.014 185.546 418.476 187.176C418.937 188.765 419.168 190.271 419.168 191.692C419.168 193.909 418.875 195.853 418.287 197.526C417.699 199.157 416.902 200.516 415.895 201.603C414.929 202.69 413.817 203.526 412.558 204.112C411.299 204.655 410.019 204.927 408.718 204.927C406.326 204.927 404.374 204.363 402.863 203.234C401.352 202.105 400.597 200.453 400.597 198.279C400.597 197.108 400.744 196.104 401.038 195.268C401.373 194.431 401.793 193.721 402.297 193.135C402.842 192.55 403.472 192.069 404.185 191.692C404.941 191.274 405.759 190.94 406.641 190.689C408.445 190.145 409.662 189.476 410.292 188.682C410.963 187.887 411.299 186.967 411.299 185.922C411.299 185.295 411.173 184.688 410.921 184.103C410.712 183.517 410.334 182.995 409.788 182.535C409.285 182.033 408.613 181.636 407.774 181.343C406.976 181.05 405.99 180.904 404.815 180.904C402.423 180.904 400.324 181.468 398.52 182.597C396.715 183.685 395.141 185.169 393.798 187.051C392.455 188.891 391.343 191.023 390.462 193.449C389.58 195.874 388.867 198.425 388.321 201.101C387.775 203.736 387.377 206.412 387.125 209.13C386.915 211.806 386.81 214.315 386.81 216.657C386.81 218.789 386.894 221.11 387.062 223.619C387.23 226.086 387.44 228.574 387.692 231.083C387.985 233.592 388.3 236.038 388.636 238.422C388.972 240.805 389.286 242.98 389.58 244.945C389.916 246.911 390.21 248.604 390.462 250.026C390.713 251.448 390.902 252.43 391.028 252.974C391.49 254.856 392.203 256.173 393.169 256.926C394.176 257.636 395.498 257.992 397.135 257.992C397.848 257.992 398.583 257.971 399.338 257.929C400.135 257.887 400.723 257.866 401.101 257.866C402.234 257.866 402.8 258.285 402.8 259.121C402.8 259.79 402.486 260.229 401.856 260.438C401.352 260.647 400.45 260.773 399.149 260.814C397.89 260.856 396.4 260.898 394.679 260.94C393.001 260.982 391.175 261.044 389.202 261.128C387.23 261.212 385.32 261.358 383.474 261.567C381.417 261.818 379.424 262.173 377.493 262.633C375.563 263.052 373.779 263.47 372.142 263.888C370.505 264.264 369.057 264.599 367.798 264.892C366.539 265.184 365.532 265.331 364.776 265.331C363.979 265.331 363.433 265.163 363.14 264.829C362.846 264.494 362.699 264.139 362.699 263.763C362.699 263.135 362.951 262.696 363.454 262.445C364 262.153 364.735 261.86 365.658 261.567C366.371 261.358 367.211 261.149 368.176 260.94C369.183 260.689 370.358 260.271 371.701 259.685C373.044 259.1 373.968 258.326 374.471 257.365C375.017 256.361 375.29 254.856 375.29 252.849C375.29 252.221 375.248 251.176 375.164 249.712C375.08 248.207 374.954 246.43 374.786 244.381C374.66 242.332 374.492 240.095 374.282 237.669C374.115 235.202 373.926 232.693 373.716 230.142C373.506 227.55 373.275 224.978 373.023 222.427C372.814 219.877 372.604 217.493 372.394 215.277C372.184 213.019 371.974 211.012 371.764 209.255C371.596 207.499 371.45 206.098 371.324 205.053C371.156 203.798 370.904 202.816 370.568 202.105C370.232 201.352 369.834 200.787 369.372 200.411C368.91 200.035 368.365 199.805 367.735 199.721C367.148 199.596 366.497 199.533 365.784 199.533H363.203C362.993 199.533 362.72 199.533 362.384 199.533C362.09 199.491 361.797 199.428 361.503 199.345C361.209 199.219 360.957 199.052 360.747 198.843C360.58 198.634 360.496 198.362 360.496 198.028C360.496 197.568 360.684 197.233 361.062 197.024C361.44 196.815 361.902 196.669 362.447 196.585C364.546 196.334 366.434 195.979 368.113 195.519C369.834 195.059 371.512 194.222 373.149 193.01C374.157 192.215 375.206 191.17 376.297 189.873C377.43 188.535 378.353 187.135 379.067 185.671C379.571 184.626 380.116 184.103 380.704 184.103C381.249 184.103 381.585 184.312 381.711 184.73C381.837 185.148 381.9 185.546 381.9 185.922Z" fill="#FFE600"/>
<path d="M10.0166 25.2873C11.0494 25.2873 12.2544 25.4098 13.6315 25.6549C15.0086 25.8509 16.4595 26.0959 17.9842 26.3899C19.558 26.6839 21.181 27.0024 22.8532 27.3455C24.5254 27.6885 26.2222 27.958 27.9436 28.154C30.747 28.546 33.5012 28.9136 36.2063 29.2566C38.9113 29.5506 41.7393 29.8201 44.6902 30.0651C47.6904 30.2612 50.8872 30.4327 54.2808 30.5797C57.6744 30.6777 61.4369 30.7267 65.5682 30.7267C70.7815 30.7267 75.1833 30.5552 78.7737 30.2122C82.364 29.8691 85.4625 29.5016 88.0691 29.1096C90.6758 28.6686 92.9382 28.2765 94.8563 27.9335C96.8236 27.5905 98.7909 27.419 100.758 27.419C102.922 27.419 104.349 27.909 105.037 28.8891C105.726 29.8691 106.07 31.2412 106.07 33.0053C106.07 34.6224 105.996 36.6071 105.849 38.9592C105.701 41.2624 105.504 43.6635 105.258 46.1627C105.012 48.6619 104.693 51.161 104.299 53.6602C103.955 56.1104 103.562 58.3155 103.119 60.2756C102.726 62.2358 102.283 63.8284 101.791 65.0535C101.299 66.2785 100.807 66.8666 100.316 66.8176C99.7254 66.8176 99.3073 65.813 99.0614 63.8039C98.8647 61.7457 98.6434 58.7565 98.3975 54.8363C98.2499 51.9451 97.9056 49.3969 97.3646 47.1918C96.8236 44.9376 96.0121 43.0265 94.9301 41.4584C93.8481 39.8903 92.4464 38.6162 90.725 37.6361C89.0036 36.6561 86.8642 35.9455 84.3067 35.5045C82.1918 35.1125 79.7573 34.8675 77.0031 34.7695C74.2981 34.6715 71.4947 34.6224 68.5929 34.6224V129.444C68.5929 134.638 68.888 138.852 69.4782 142.087C70.1176 145.321 70.9045 147.893 71.8389 149.805C72.8226 151.716 73.88 153.088 75.0112 153.921C76.1916 154.754 77.3228 155.391 78.4048 155.832C79.1425 156.126 80.0278 156.371 81.0606 156.567C82.0935 156.763 83.1755 156.934 84.3067 157.082C85.4379 157.229 86.5445 157.327 87.6265 157.376C88.7577 157.474 89.7659 157.547 90.6512 157.596C92.6185 157.694 94.1678 157.841 95.299 158.037C96.4302 158.233 96.9958 158.748 96.9958 159.581C96.9958 159.924 96.8974 160.267 96.7007 160.61C96.5039 160.953 96.1351 161.247 95.5941 161.492C95.053 161.786 94.2661 162.006 93.2333 162.153C92.2496 162.349 90.9463 162.447 89.3233 162.447C86.815 162.447 84.3559 162.398 81.9459 162.3C79.536 162.202 77.1015 162.153 74.6423 162.153C70.9045 162.153 67.2896 162.398 63.7976 162.888C60.3057 163.427 56.8629 164.211 53.4693 165.241C50.0757 166.27 46.6575 167.544 43.2148 169.063C39.772 170.631 36.2554 172.444 32.6651 174.502C31.5339 175.188 30.3781 175.801 29.1978 176.34C28.0666 176.928 27.1567 177.222 26.4681 177.222C25.8288 177.222 25.5091 176.903 25.5091 176.266C25.5091 175.727 25.8779 175.09 26.6157 174.355C27.4026 173.669 28.4108 172.861 29.6404 171.929C30.87 171.047 32.2717 169.994 33.8455 168.769C35.4685 167.544 37.1407 166.147 38.8621 164.579C41.3212 162.276 43.2885 159.997 44.764 157.743C46.2887 155.489 47.469 153.137 48.3051 150.687C49.1904 148.236 49.8052 145.639 50.1495 142.895C50.5429 140.102 50.8134 137.039 50.961 133.707L55.9038 34.4754C53.5923 34.4264 51.6495 34.4019 50.0757 34.4019C48.5511 34.3529 47.1248 34.3284 45.7968 34.3284C44.4689 34.3284 43.1164 34.3284 41.7393 34.3284C40.4114 34.3284 38.8375 34.3284 37.0178 34.3284C33.6242 34.3284 30.747 34.4999 28.3863 34.843C26.0255 35.137 24.0336 35.578 22.4106 36.1661C20.8367 36.7541 19.6072 37.5136 18.7219 38.4447C17.8366 39.3268 17.1481 40.3803 16.6562 41.6054C16.2136 42.7815 15.9431 44.1046 15.8447 45.5747C15.7464 47.0448 15.6972 48.6619 15.6972 50.426C15.6972 52.3371 15.7955 54.3217 15.9923 56.3799C16.2382 58.389 16.5333 60.3736 16.8776 62.3338C17.2218 64.2939 17.5907 66.156 17.9842 67.9201C18.3776 69.6353 18.7711 71.1789 19.1645 72.5509C19.5088 73.825 19.8285 74.9521 20.1236 75.9322C20.4187 76.9122 20.5662 77.7453 20.5662 78.4313C20.5662 78.6763 20.4925 78.9704 20.3449 79.3134C20.2466 79.6564 19.9761 79.8279 19.5334 79.8279C18.894 79.8279 18.2055 79.3624 17.4677 78.4313C16.7792 77.5003 16.0906 76.2752 15.4021 74.7561C14.7135 73.188 14.025 71.4239 13.3364 69.4637C12.6479 67.5036 11.9839 65.4945 11.3445 63.4363C10.7543 61.3292 10.1887 59.2711 9.64774 57.2619C9.10673 55.2038 8.61491 53.3417 8.17227 51.6756C7.09025 47.5103 6.27874 43.6635 5.73774 40.1353C5.24591 36.6071 5 33.7649 5 31.6088C5 29.6486 5.31969 28.105 5.95906 26.9779C6.64761 25.8509 8.00013 25.2873 10.0166 25.2873Z" fill="#FFE600"/>
<path d="M129.707 62.7748C129.707 63.3628 129.682 64.1959 129.633 65.274C129.584 66.303 129.559 67.3811 129.559 68.5082C129.559 69.9293 129.633 71.4484 129.781 73.0655C129.978 74.6336 130.199 76.1037 130.445 77.4758C130.74 78.7989 131.01 79.9259 131.256 80.857C131.551 81.7391 131.797 82.1801 131.994 82.1801C132.191 82.1801 132.461 81.4695 132.805 80.0484C133.199 78.6273 133.74 76.8387 134.429 74.6826C135.166 72.5264 136.101 70.2233 137.232 67.7731C138.363 65.274 139.814 62.9463 141.585 60.7902C143.355 58.634 145.47 56.8454 147.929 55.4243C150.437 54.0032 153.388 53.2927 156.782 53.2927C159.93 53.2927 162.561 53.8317 164.676 54.9098C166.84 55.9879 168.561 57.3354 169.84 58.9526C171.119 60.5697 172.028 62.3338 172.569 64.2449C173.111 66.107 173.381 67.8711 173.381 69.5372C173.381 72.1344 173.037 74.4131 172.348 76.3732C171.66 78.2843 170.725 79.8769 169.545 81.151C168.414 82.4251 167.11 83.4052 165.635 84.0912C164.159 84.7282 162.659 85.0468 161.135 85.0468C158.331 85.0468 156.044 84.3852 154.274 83.0621C152.503 81.7391 151.618 79.8034 151.618 77.2553C151.618 75.8832 151.79 74.7071 152.134 73.727C152.528 72.747 153.019 71.9139 153.61 71.2279C154.249 70.5418 154.987 69.9783 155.823 69.5372C156.708 69.0472 157.667 68.6552 158.7 68.3612C160.815 67.7241 162.241 66.9401 162.979 66.009C163.766 65.078 164.159 63.9999 164.159 62.7748C164.159 62.0398 164.012 61.3292 163.717 60.6432C163.471 59.9571 163.028 59.3446 162.389 58.8055C161.799 58.2175 161.012 57.752 160.028 57.409C159.094 57.0659 157.938 56.8944 156.561 56.8944C153.757 56.8944 151.298 57.556 149.183 58.879C147.068 60.1531 145.224 61.8927 143.65 64.0979C142.076 66.254 140.773 68.7532 139.74 71.5954C138.707 74.4376 137.871 77.4268 137.232 80.563C136.593 83.6502 136.125 86.7864 135.83 89.9716C135.584 93.1078 135.461 96.048 135.461 98.7922C135.461 101.291 135.56 104.011 135.756 106.951C135.953 109.842 136.199 112.758 136.494 115.698C136.838 118.638 137.207 121.505 137.601 124.298C137.994 127.092 138.363 129.64 138.707 131.943C139.101 134.246 139.445 136.231 139.74 137.897C140.035 139.563 140.257 140.714 140.404 141.351C140.945 143.557 141.781 145.1 142.912 145.982C144.093 146.815 145.642 147.232 147.56 147.232C148.396 147.232 149.257 147.207 150.142 147.158C151.077 147.109 151.765 147.085 152.208 147.085C153.536 147.085 154.2 147.575 154.2 148.555C154.2 149.339 153.831 149.854 153.093 150.099C152.503 150.344 151.446 150.491 149.921 150.54C148.446 150.589 146.7 150.638 144.683 150.687C142.716 150.736 140.576 150.809 138.265 150.907C135.953 151.005 133.715 151.177 131.551 151.422C129.141 151.716 126.805 152.132 124.543 152.671C122.28 153.161 120.19 153.651 118.272 154.141C116.354 154.582 114.657 154.974 113.182 155.317C111.706 155.66 110.526 155.832 109.641 155.832C108.706 155.832 108.067 155.636 107.722 155.244C107.378 154.852 107.206 154.435 107.206 153.994C107.206 153.259 107.501 152.745 108.091 152.451C108.731 152.108 109.591 151.765 110.673 151.422C111.509 151.177 112.493 150.932 113.624 150.687C114.805 150.393 116.182 149.903 117.756 149.216C119.329 148.53 120.412 147.624 121.002 146.497C121.641 145.321 121.961 143.557 121.961 141.204C121.961 140.469 121.912 139.244 121.813 137.529C121.715 135.765 121.567 133.682 121.371 131.281C121.223 128.88 121.026 126.258 120.78 123.416C120.584 120.525 120.362 117.585 120.116 114.596C119.871 111.558 119.6 108.544 119.305 105.555C119.059 102.565 118.813 99.7722 118.567 97.1751C118.321 94.5289 118.075 92.1767 117.829 90.1186C117.633 88.0605 117.461 86.4189 117.313 85.1938C117.116 83.7237 116.821 82.5721 116.428 81.7391C116.034 80.857 115.567 80.1954 115.026 79.7544C114.485 79.3134 113.846 79.0439 113.108 78.9459C112.419 78.7989 111.657 78.7253 110.821 78.7253H107.796C107.55 78.7253 107.231 78.7253 106.837 78.7253C106.493 78.6763 106.149 78.6028 105.804 78.5048C105.46 78.3578 105.165 78.1618 104.919 77.9168C104.722 77.6718 104.624 77.3533 104.624 76.9612C104.624 76.4222 104.845 76.0302 105.288 75.7852C105.731 75.5401 106.272 75.3686 106.911 75.2706C109.37 74.9766 111.583 74.5601 113.551 74.021C115.567 73.482 117.534 72.5019 119.452 71.0808C120.633 70.1498 121.862 68.9247 123.141 67.4056C124.469 65.8375 125.551 64.1959 126.387 62.4808C126.977 61.2557 127.617 60.6432 128.305 60.6432C128.945 60.6432 129.338 60.8882 129.486 61.3782C129.633 61.8682 129.707 62.3338 129.707 62.7748Z" fill="#FFE600"/>
<path d="M204.248 38.6652C207.15 38.6652 209.461 39.4248 211.183 40.9439C212.904 42.463 213.765 44.6191 213.765 47.4123C213.765 49.2744 213.47 50.8425 212.879 52.1166C212.289 53.3417 211.527 54.3462 210.592 55.1303C209.658 55.8653 208.625 56.4044 207.494 56.7474C206.412 57.0414 205.33 57.1884 204.248 57.1884C203.313 57.1884 202.33 57.0414 201.297 56.7474C200.264 56.4534 199.305 55.9634 198.42 55.2773C197.535 54.5423 196.797 53.6112 196.207 52.4841C195.666 51.308 195.395 49.8625 195.395 48.1473C195.395 46.3342 195.69 44.8396 196.28 43.6635C196.871 42.4385 197.608 41.4584 198.494 40.7234C199.379 39.9883 200.338 39.4738 201.371 39.1797C202.404 38.8367 203.363 38.6652 204.248 38.6652ZM214.724 62.7748C215.216 62.7748 215.462 63.3383 215.462 64.4654C215.462 65.2005 215.363 66.4255 215.166 68.1407C215.019 69.8068 214.822 71.5954 214.576 73.5065C214.183 76.5447 213.789 79.9259 213.396 83.6502C213.002 87.3254 212.609 91.1232 212.215 95.0434C211.871 98.9147 211.527 102.761 211.183 106.584C210.888 110.406 210.617 113.959 210.371 117.242C210.125 120.476 209.928 123.343 209.781 125.842C209.633 128.292 209.56 130.105 209.56 131.281C209.56 132.8 209.658 134.05 209.855 135.03C210.051 136.01 210.297 136.819 210.592 137.456C210.888 138.093 211.207 138.607 211.551 138.999C211.945 139.391 212.338 139.734 212.732 140.028C213.175 140.322 213.716 140.592 214.355 140.837C214.994 141.082 215.683 141.327 216.421 141.572C217.158 141.768 217.896 141.94 218.634 142.087C219.421 142.234 220.134 142.332 220.773 142.381C221.806 142.577 222.642 142.724 223.282 142.822C223.921 142.92 224.241 143.238 224.241 143.777C224.241 144.757 223.183 145.247 221.068 145.247C219.593 145.247 218.117 145.149 216.642 144.953C215.166 144.708 213.642 144.439 212.068 144.145C210.543 143.851 208.945 143.606 207.273 143.41C205.6 143.165 203.805 143.042 201.887 143.042C200.117 143.042 198.518 143.091 197.092 143.189C195.666 143.287 194.362 143.41 193.182 143.557C192.001 143.704 190.895 143.826 189.862 143.924C188.829 144.022 187.796 144.071 186.764 144.071C185.927 144.071 185.165 143.973 184.477 143.777C183.788 143.532 183.444 143.067 183.444 142.381C183.444 141.695 183.813 141.229 184.55 140.984C185.337 140.69 186.124 140.469 186.911 140.322C187.895 140.126 188.854 139.906 189.788 139.661C190.723 139.416 191.559 139.048 192.297 138.558C193.083 138.019 193.723 137.333 194.215 136.5C194.756 135.618 195.1 134.491 195.248 133.119C195.444 130.424 195.592 127.68 195.69 124.886C195.789 122.093 195.862 119.349 195.911 116.654C195.961 113.91 195.985 111.263 195.985 108.715C195.985 106.118 195.985 103.692 195.985 101.438C195.985 98.7432 195.985 96.293 195.985 94.0879C195.985 91.8337 195.936 89.9226 195.838 88.3545C195.739 85.8553 195.444 83.8952 194.952 82.4741C194.51 81.053 193.846 79.9994 192.961 79.3134C192.124 78.6273 191.042 78.1863 189.714 77.9903C188.387 77.7453 186.788 77.5493 184.919 77.4023C184.378 77.3043 183.936 77.1327 183.591 76.8877C183.296 76.6427 183.149 76.2507 183.149 75.7117C183.149 74.7806 183.886 74.2416 185.362 74.0946C186.1 74.0455 187.034 73.972 188.165 73.874C189.296 73.727 190.6 73.531 192.075 73.286C193.6 73.041 195.248 72.698 197.018 72.2569C198.789 71.7669 200.658 71.1054 202.625 70.2723C204.789 69.3902 206.559 68.5082 207.937 67.6261C209.363 66.7441 210.519 65.96 211.404 65.274C212.289 64.5389 212.978 63.9509 213.47 63.5098C213.961 63.0198 214.379 62.7748 214.724 62.7748Z" fill="#FFE600"/>
<path d="M283.879 91.8092C282.305 91.8092 280.83 91.5642 279.453 91.0742C278.125 90.5841 276.969 89.8491 275.985 88.869C275.002 87.84 274.215 86.5659 273.625 85.0468C273.084 83.4787 272.813 81.6655 272.813 79.6074C272.813 78.1373 272.715 76.7162 272.518 75.3441C272.371 73.972 272.026 72.747 271.485 71.6689C270.944 70.5908 270.157 69.7333 269.124 69.0962C268.141 68.4102 266.813 68.0672 265.141 68.0672C263.124 68.0672 261.132 68.7042 259.165 69.9783C257.198 71.2034 255.427 73.0655 253.853 75.5646C252.279 78.0638 251.001 81.1755 250.017 84.8998C249.033 88.624 248.542 92.9363 248.542 97.8366C248.542 103.815 249.132 109.156 250.312 113.861C251.542 118.516 253.288 122.485 255.55 125.768C257.862 129.003 260.665 131.477 263.96 133.192C267.256 134.908 270.969 135.765 275.1 135.765C277.805 135.765 280.215 135.3 282.33 134.369C284.494 133.437 286.289 132.188 287.715 130.62C289.142 129.052 290.224 127.214 290.961 125.107C291.748 122.951 292.142 120.697 292.142 118.344C292.142 115.845 291.822 113.738 291.183 112.023C290.593 110.308 289.929 108.862 289.191 107.686C288.502 106.461 287.838 105.457 287.199 104.673C286.609 103.84 286.314 103.129 286.314 102.541C286.314 101.806 286.707 101.438 287.494 101.438C288.232 101.438 289.166 101.83 290.298 102.614C291.478 103.398 292.609 104.55 293.691 106.069C294.822 107.539 295.781 109.352 296.568 111.509C297.355 113.665 297.749 116.09 297.749 118.785C297.749 123.196 297.011 127.116 295.535 130.546C294.109 133.927 292.117 136.794 289.56 139.146C287.002 141.449 283.953 143.214 280.412 144.439C276.871 145.615 273.034 146.203 268.903 146.203C264.083 146.203 259.681 145.296 255.698 143.483C251.714 141.67 248.271 139.073 245.369 135.692C242.517 132.261 240.279 128.121 238.656 123.269C237.082 118.369 236.295 112.856 236.295 106.731C236.295 103.791 236.566 100.875 237.107 97.9836C237.648 95.0924 238.385 92.3483 239.32 89.7511C240.254 87.1049 241.336 84.6547 242.566 82.4006C243.796 80.1464 245.123 78.1618 246.55 76.4467C248.665 73.8985 250.829 71.7669 253.042 70.0518C255.255 68.2877 257.493 66.8911 259.755 65.862C262.067 64.7839 264.428 64.0244 266.837 63.5834C269.297 63.1423 271.805 62.9218 274.362 62.9218C277.166 62.9218 279.797 63.3138 282.256 64.0979C284.715 64.8819 286.83 65.9845 288.601 67.4056C290.42 68.8267 291.847 70.5418 292.88 72.5509C293.912 74.5111 294.429 76.7162 294.429 79.1664C294.429 81.5185 294.109 83.5032 293.47 85.1203C292.83 86.6884 291.994 87.987 290.961 89.016C289.929 89.9961 288.773 90.7066 287.494 91.1477C286.265 91.5887 285.06 91.8092 283.879 91.8092Z" fill="#FFE600"/>
<path d="M330.681 172.959C328.173 172.959 325.615 173.057 323.009 173.253C320.402 173.449 317.894 173.669 315.484 173.914C313.123 174.208 310.959 174.453 308.992 174.649C307.024 174.845 305.401 174.943 304.123 174.943C303.139 174.943 302.475 174.772 302.131 174.429C301.737 174.086 301.541 173.645 301.541 173.106C301.541 171.929 302.401 171.341 304.123 171.341C306.238 171.341 308.008 171.17 309.434 170.827C310.861 170.533 312.115 170.19 313.197 169.798C315.41 168.965 317.131 167.74 318.361 166.123C319.591 164.505 320.476 162.692 321.017 160.683C321.558 158.674 321.878 156.542 321.976 154.288C322.074 152.034 322.123 149.878 322.123 147.82C322.123 144.978 322.099 141.866 322.05 138.485C322.05 135.055 322.001 131.526 321.902 127.9C321.853 124.225 321.804 120.55 321.755 116.874C321.705 113.15 321.632 109.573 321.533 106.143C321.484 102.663 321.41 99.4292 321.312 96.44C321.263 93.4018 321.214 90.7556 321.164 88.5015C321.115 85.6593 321.066 82.5721 321.017 79.2399C320.968 75.9077 320.894 72.5264 320.796 69.0962C320.746 65.617 320.673 62.1623 320.574 58.732C320.525 55.3018 320.427 52.0921 320.279 49.1029C320.181 46.1137 320.058 43.443 319.91 41.0909C319.763 38.6897 319.591 36.7786 319.394 35.3575C319.099 33.3484 318.582 31.7313 317.845 30.5062C317.107 29.2811 316.246 28.35 315.263 27.713C314.328 27.0269 313.271 26.5859 312.09 26.3899C310.959 26.1449 309.803 26.0224 308.623 26.0224C306.901 26.0224 305.082 26.1694 303.164 26.4634C301.246 26.7084 299.5 26.8309 297.926 26.8309C296.647 26.8309 295.737 26.6839 295.196 26.3899C294.606 26.0469 294.311 25.5324 294.311 24.8463C294.311 24.2583 294.532 23.7927 294.975 23.4497C295.417 23.1067 295.934 22.8617 296.524 22.7147C299.081 22.1756 301.442 21.6366 303.606 21.0976C305.721 20.5585 307.688 19.995 309.508 19.4069C311.328 18.7699 313.025 18.0839 314.599 17.3488C316.222 16.6138 317.82 15.7562 319.394 14.7761C321.115 13.6981 322.566 12.571 323.746 11.3949C324.976 10.2188 326.009 9.16527 326.845 8.23421C327.73 7.30315 328.468 6.5436 329.058 5.95556C329.698 5.31852 330.288 5 330.829 5C331.517 5 331.96 5.34302 332.157 6.02907C332.403 6.66611 332.526 7.32765 332.526 8.0137C332.526 8.79775 332.501 9.85132 332.452 11.1744C332.403 12.4485 332.353 13.8451 332.304 15.3642C332.255 16.8833 332.206 18.4269 332.157 19.995C332.107 21.5141 332.083 22.8862 332.083 24.1113C332.083 26.0224 332.107 28.6441 332.157 31.9763C332.255 35.3085 332.353 39.0817 332.452 43.296C332.599 47.4613 332.747 51.9206 332.894 56.6739C333.042 61.4272 333.19 66.1805 333.337 70.9338C333.534 75.6871 333.706 80.318 333.853 84.8263C334.05 89.2855 334.222 93.3528 334.37 97.0281C334.567 100.654 334.739 103.742 334.886 106.29C335.034 108.789 335.157 110.455 335.255 111.288C337.222 109.23 338.968 107.441 340.493 105.922C342.018 104.403 343.419 102.957 344.698 101.585C345.977 100.164 347.231 98.7432 348.461 97.3221C349.739 95.852 351.117 94.1859 352.592 92.3237C353.428 91.1967 354.043 90.1676 354.436 89.2365C354.83 88.3055 355.027 87.4234 355.027 86.5904C355.027 84.6302 353.969 83.1111 351.854 82.0331L345.805 79.1664C344.821 78.6273 344.329 77.9413 344.329 77.1082C344.329 76.6182 344.452 76.2017 344.698 75.8587C344.944 75.4666 345.411 75.2706 346.1 75.2706C346.69 75.2706 347.354 75.4666 348.092 75.8587C348.83 76.2507 349.789 76.7162 350.969 77.2553C352.149 77.7943 353.576 78.3823 355.248 79.0194C356.92 79.6564 358.961 80.2199 361.371 80.71C362.306 80.906 363.412 81.0775 364.691 81.2245C366.019 81.3715 367.371 81.5185 368.748 81.6655C370.126 81.7635 371.453 81.8616 372.732 81.9596C374.06 82.0086 375.167 82.0331 376.052 82.0331C377.085 82.0331 377.896 82.1801 378.487 82.4741C379.077 82.7191 379.372 83.1846 379.372 83.8707C379.372 84.4097 379.101 84.8753 378.56 85.2673C378.019 85.6103 377.085 85.7818 375.757 85.7818C374.478 85.7818 373.199 85.8308 371.921 85.9288C370.691 86.0268 369.462 86.2228 368.232 86.5169C367.002 86.8109 365.773 87.2519 364.543 87.84C363.314 88.428 362.06 89.212 360.781 90.1921C359.994 90.7801 359.059 91.5642 357.977 92.5443C356.945 93.4753 355.887 94.5044 354.805 95.6315C353.772 96.7095 352.764 97.8366 351.78 99.0127C350.797 100.14 349.961 101.218 349.272 102.247C349.42 103.325 349.764 105.065 350.305 107.466C350.895 109.818 351.682 112.489 352.666 115.478C353.649 118.418 354.854 121.481 356.281 124.666C357.756 127.802 359.428 130.669 361.297 133.266C363.166 135.863 365.281 138.019 367.642 139.734C370.003 141.4 372.585 142.234 375.388 142.234C377.995 142.234 380.085 141.302 381.659 139.44C383.233 137.578 384.02 135.104 384.02 132.016C384.02 130.693 383.847 129.419 383.503 128.194C383.159 126.92 382.716 125.719 382.175 124.592C381.634 123.465 380.995 122.436 380.257 121.505C379.519 120.525 378.757 119.668 377.97 118.932C377.38 118.344 376.765 117.83 376.126 117.389C375.536 116.899 375.241 116.507 375.241 116.213C375.241 115.821 375.511 115.625 376.052 115.625C376.642 115.625 377.454 115.943 378.487 116.58C379.569 117.168 380.552 117.854 381.437 118.638C382.421 119.423 383.356 120.378 384.241 121.505C385.175 122.583 385.987 123.833 386.675 125.254C387.413 126.675 387.979 128.268 388.372 130.032C388.815 131.747 389.036 133.658 389.036 135.765C389.036 137.284 388.79 139.073 388.298 141.131C387.856 143.189 387.02 145.174 385.79 147.085C384.61 148.947 382.938 150.54 380.774 151.863C378.609 153.186 375.831 153.847 372.437 153.847C367.863 153.847 363.781 152.794 360.191 150.687C356.65 148.53 353.502 145.615 350.748 141.94C348.043 138.264 345.706 133.976 343.739 129.076C341.772 124.176 340.1 118.981 338.723 113.493L335.698 116.801C335.796 119.202 335.919 121.799 336.067 124.592C336.263 127.386 336.485 130.203 336.731 133.045C336.977 135.839 337.222 138.583 337.468 141.278C337.714 143.973 337.936 146.448 338.132 148.702C338.378 150.956 338.6 152.916 338.796 154.582C338.993 156.199 339.165 157.351 339.313 158.037C339.608 159.654 339.977 161.1 340.419 162.374C340.911 163.648 341.551 164.726 342.337 165.608C343.124 166.49 344.133 167.152 345.362 167.593C346.592 168.083 348.141 168.328 350.01 168.328C350.846 168.328 351.731 168.303 352.666 168.254C353.649 168.205 354.584 168.181 355.469 168.181C356.109 168.181 356.748 168.205 357.387 168.254C358.027 168.352 358.592 168.499 359.084 168.695C359.576 168.891 359.969 169.161 360.264 169.504C360.609 169.847 360.781 170.312 360.781 170.9C360.781 171.782 360.314 172.542 359.379 173.179C358.494 173.865 356.699 174.208 353.994 174.208C352.617 174.208 351.239 174.135 349.862 173.988C348.534 173.89 346.985 173.743 345.215 173.547C343.493 173.4 341.452 173.253 339.091 173.106C336.78 173.008 333.976 172.959 330.681 172.959Z" fill="#FFE600"/>
</g>
<defs>
<filter id="filter0_di_39_50" x="0" y="0" width="606" height="410" filterUnits="userSpaceOnUse" color-interpolation-filters="sRGB">
<feFlood flood-opacity="0" result="BackgroundImageFix"/>
<feColorMatrix in="SourceAlpha" type="matrix" values="0 0 0 0 0 0 0 0 0 0 0 0 0 0 0 0 0 0 127 0" result="hardAlpha"/>
<feOffset dx="5" dy="5"/>
<feGaussianBlur stdDeviation="5"/>
<feComposite in2="hardAlpha" operator="out"/>
<feColorMatrix type="matrix" values="0 0 0 0 0 0 0 0 0 0 0 0 0 0 0 0 0 0 0.25 0"/>
<feBlend mode="normal" in2="BackgroundImageFix" result="effect1_dropShadow_39_50"/>
<feBlend mode="normal" in="SourceGraphic" in2="effect1_dropShadow_39_50" result="shape"/>
<feColorMatrix in="SourceAlpha" type="matrix" values="0 0 0 0 0 0 0 0 0 0 0 0 0 0 0 0 0 0 127 0" result="hardAlpha"/>
<feOffset/>
<feGaussianBlur stdDeviation="5"/>
<feComposite in2="hardAlpha" operator="arithmetic" k2="-1" k3="1"/>
<feColorMatrix type="matrix" values="0 0 0 0 1 0 0 0 0 0.36 0 0 0 0 0 0 0 0 1 0"/>
<feBlend mode="normal" in2="shape" result="effect2_innerShadow_39_50"/>
</filter>
</defs>
</svg>
