<svg width="706" height="305" viewBox="0 0 706 305" fill="none" xmlns="http://www.w3.org/2000/svg">
<g filter="url(#filter0_di_55_107)">
<path d="M153.236 8.8239C153.47 8.8239 153.739 9.10901 154.041 9.67925C154.342 10.2495 154.628 10.9203 154.896 11.6918C155.198 12.4298 155.466 13.1845 155.701 13.956C155.969 14.6939 156.17 15.2474 156.305 15.6164C157.042 17.7966 157.864 20.2621 158.77 23.0126C159.675 25.7631 160.631 28.6981 161.638 31.8176C162.677 34.9371 163.751 38.1908 164.857 41.5786C165.998 44.9329 167.121 48.304 168.228 51.6918C169.369 55.0461 170.492 58.3669 171.599 61.6541C172.706 64.9413 173.763 68.0776 174.769 71.0629C175.775 74.0147 176.714 76.7484 177.586 79.2642C178.492 81.7463 179.297 83.9099 180.001 85.7547C180.806 87.935 181.594 89.6793 182.366 90.9874C183.137 92.2956 183.959 93.3354 184.831 94.1069C185.703 94.8784 186.659 95.4486 187.699 95.8176C188.772 96.1866 189.996 96.522 191.371 96.8239C192.378 97.0252 192.881 97.3941 192.881 97.9308C192.881 98.2998 192.696 98.5514 192.327 98.6855C191.958 98.8197 191.539 98.8868 191.07 98.8868C190.332 98.8868 189.392 98.87 188.252 98.8365C187.112 98.8029 185.804 98.7862 184.328 98.7862C183.154 98.7862 181.879 98.8029 180.504 98.8365C179.163 98.9036 177.771 98.9874 176.328 99.0881C174.081 99.2558 172.002 99.5241 170.09 99.8931C168.178 100.296 166.451 100.681 164.908 101.05C163.365 101.453 162.006 101.805 160.833 102.107C159.692 102.409 158.77 102.56 158.065 102.56C157.697 102.56 157.395 102.459 157.16 102.258C156.959 102.09 156.858 101.855 156.858 101.553C156.858 101.117 156.975 100.765 157.21 100.497C157.445 100.229 157.898 99.9937 158.569 99.7925C158.837 99.7254 159.223 99.6247 159.726 99.4906C160.229 99.3564 160.782 99.2055 161.386 99.0377C161.99 98.87 162.61 98.6688 163.247 98.434C163.918 98.2327 164.522 97.9979 165.059 97.7296C165.73 97.3606 166.333 96.8742 166.87 96.2704C167.407 95.6667 167.675 94.7442 167.675 93.5032C167.675 93.2348 167.641 92.8658 167.574 92.3962C167.541 91.9266 167.474 91.5073 167.373 91.1384C166.769 88.7904 166.149 86.4088 165.511 83.9937C164.874 81.5786 164.237 79.2809 163.6 77.1006C162.962 74.9203 162.359 72.9078 161.788 71.0629C161.218 69.218 160.698 67.7086 160.229 66.5346C159.457 64.5891 158.569 63.1132 157.562 62.1069C156.556 61.0671 155.449 60.2621 154.242 59.6918C153.906 59.5577 153.353 59.3396 152.582 59.0377C151.81 58.7359 150.888 58.4172 149.814 58.0818C148.775 57.7128 147.651 57.327 146.444 56.9245C145.236 56.522 144.045 56.1363 142.872 55.7673C141.698 55.3648 140.591 55.0126 139.551 54.7107C138.545 54.3753 137.706 54.0901 137.035 53.8554C136.23 56.4382 135.425 59.0042 134.621 61.5535C133.849 64.0692 133.128 66.4004 132.457 68.5472C131.82 70.6604 131.25 72.522 130.747 74.1321C130.277 75.7421 129.942 76.9161 129.74 77.6541C129.472 78.5262 129.288 79.3145 129.187 80.0189C129.086 80.7233 129.036 81.3438 129.036 81.8805C129.036 82.8533 129.17 83.6751 129.438 84.3459C129.74 84.9832 130.126 85.5367 130.596 86.0063C131.065 86.4424 131.602 86.8281 132.206 87.1635C132.843 87.4654 133.497 87.7673 134.168 88.0692C134.738 88.3375 135.241 88.6394 135.677 88.9748C136.113 89.2767 136.331 89.6625 136.331 90.1321C136.331 90.434 136.197 90.7023 135.929 90.9371C135.694 91.1384 135.308 91.239 134.771 91.239C134.201 91.239 133.48 91.1048 132.608 90.8365C131.736 90.5681 130.763 90.2327 129.69 89.8302C128.65 89.4277 127.543 89.0084 126.369 88.5723C125.196 88.1027 124.022 87.6834 122.848 87.3145C121.909 87.0461 120.936 86.8113 119.93 86.6101C118.923 86.3753 117.951 86.1908 117.012 86.0566C116.072 85.9224 115.217 85.8218 114.446 85.7547C113.708 85.6541 113.138 85.587 112.735 85.5535C111.897 85.4864 111.293 85.369 110.924 85.2013C110.555 85.0335 110.371 84.7149 110.371 84.2453C110.371 83.9099 110.471 83.6415 110.672 83.4403C110.907 83.2055 111.293 83.0881 111.83 83.0881C112.031 83.0881 112.383 83.1048 112.886 83.1384C113.423 83.1719 114.027 83.1887 114.697 83.1887C116.307 83.1887 117.649 83.0881 118.722 82.8868C119.796 82.6855 120.701 82.3669 121.439 81.9308C122.177 81.4948 122.781 80.9581 123.25 80.3208C123.753 79.6499 124.206 78.8616 124.609 77.956C125.011 77.0839 125.497 75.9266 126.068 74.4843C126.638 73.0084 127.242 71.4151 127.879 69.7044C128.55 67.9602 129.22 66.1656 129.891 64.3208C130.562 62.4424 131.183 60.6813 131.753 59.0377C132.357 57.3606 132.876 55.8847 133.312 54.6101C133.748 53.3019 134.067 52.3291 134.268 51.6918C134.537 50.8197 134.906 49.6289 135.375 48.1195C135.878 46.5765 136.432 44.8658 137.035 42.9874C137.639 41.109 138.243 39.1635 138.847 37.1509C139.484 35.1048 140.054 33.1593 140.557 31.3145C141.094 29.4361 141.513 27.7421 141.815 26.2327C142.15 24.6897 142.318 23.4822 142.318 22.6101C142.318 21.9392 142.134 21.3857 141.765 20.9497C141.396 20.4801 140.792 20.2453 139.953 20.2453C139.216 20.2453 138.377 20.2956 137.438 20.3962C136.532 20.4969 135.61 20.5975 134.671 20.6981C133.732 20.7987 132.809 20.8994 131.904 21C131.032 21.1006 130.277 21.1509 129.64 21.1509C128.399 21.1509 127.778 20.7149 127.778 19.8428C127.778 19.0377 128.365 18.5849 129.539 18.4843C130.344 18.4507 131.25 18.3669 132.256 18.2327C133.296 18.0985 134.386 17.914 135.526 17.6792C136.666 17.4444 137.807 17.1593 138.947 16.8239C140.121 16.4549 141.245 16.0189 142.318 15.5157C144.029 14.7442 145.488 13.956 146.695 13.1509C147.903 12.3459 148.926 11.6247 149.764 10.9874C150.636 10.3501 151.341 9.83019 151.877 9.42767C152.447 9.02516 152.9 8.8239 153.236 8.8239ZM137.891 51.1384C138.93 51.5073 140.255 51.9769 141.865 52.5472C143.509 53.0839 145.169 53.6205 146.846 54.1572C148.523 54.6604 150.066 55.0964 151.475 55.4654C152.917 55.8344 153.957 56.0189 154.594 56.0189C154.996 56.0189 155.349 55.8847 155.651 55.6164C155.952 55.3145 156.103 54.8616 156.103 54.2579C156.103 53.7547 155.952 52.8491 155.651 51.5409C155.349 50.1992 154.963 48.6897 154.493 47.0126C154.057 45.3019 153.571 43.5241 153.034 41.6792C152.498 39.8008 151.995 38.0734 151.525 36.4969C151.055 34.9203 150.653 33.6122 150.318 32.5723C150.016 31.499 149.848 30.8952 149.814 30.761C149.68 30.3585 149.496 29.7883 149.261 29.0503C149.06 28.2788 148.825 27.5241 148.557 26.7862C148.322 26.0482 148.07 25.4109 147.802 24.8742C147.567 24.3375 147.383 24.0692 147.249 24.0692C147.114 24.0692 146.93 24.2537 146.695 24.6226C146.494 24.9916 146.276 25.4444 146.041 25.9811C145.806 26.4843 145.572 27.0377 145.337 27.6415C145.102 28.2453 144.917 28.7987 144.783 29.3019L137.891 51.1384Z" fill="#FFE600"/>
<path d="M228.199 22.5094C232.224 22.5094 235.528 23.0964 238.11 24.2704C240.693 25.4109 242.739 26.8868 244.248 28.6981C245.758 30.4759 246.797 32.4549 247.368 34.6352C247.971 36.782 248.273 38.8616 248.273 40.8742C248.273 42.8533 248.022 44.8658 247.519 46.912C247.015 48.9245 246.261 50.8197 245.255 52.5975C244.282 54.3753 243.074 55.9853 241.632 57.4277C240.223 58.8365 238.597 59.9099 236.752 60.6478L234.689 61.4528C236.333 66.3837 238.295 70.6101 240.576 74.1321C242.856 77.6541 245.305 80.5556 247.921 82.8365C250.571 85.1174 253.321 86.7946 256.172 87.8679C259.057 88.9413 261.924 89.478 264.775 89.478C266.419 89.478 267.911 89.26 269.253 88.8239C270.628 88.3878 271.802 87.7505 272.775 86.912C273.781 86.0398 274.552 85 275.089 83.7925C275.626 82.5514 275.894 81.1258 275.894 79.5157C275.894 78.3082 275.827 77.3019 275.693 76.4969C275.559 75.6918 275.408 75.0377 275.24 74.5346C275.106 73.9979 274.972 73.5786 274.837 73.2767C274.703 72.9748 274.636 72.7065 274.636 72.4717C274.636 72.304 274.67 72.1698 274.737 72.0692C274.804 71.935 274.938 71.8679 275.139 71.8679C275.441 71.8679 275.81 72.1195 276.246 72.6227C276.682 73.0922 277.085 73.7296 277.454 74.5346C277.856 75.3396 278.191 76.2621 278.46 77.3019C278.728 78.3082 278.862 79.348 278.862 80.4214C278.862 82.9707 278.493 85.3354 277.755 87.5157C277.018 89.696 275.877 91.5912 274.334 93.2013C272.825 94.8113 270.913 96.0692 268.599 96.9749C266.285 97.8805 263.568 98.3333 260.448 98.3333C256.088 98.3333 252.181 97.6793 248.726 96.3711C245.305 95.0964 242.269 93.4361 239.62 91.3899C236.97 89.3438 234.689 87.0629 232.777 84.5472C230.866 81.9979 229.239 79.4654 227.897 76.9497C226.556 74.4004 225.482 72.0021 224.677 69.7547C223.872 67.5073 223.252 65.6625 222.816 64.2201C221.843 64.3543 220.921 64.4549 220.049 64.522C219.177 64.5556 218.355 64.5723 217.583 64.5723C216.644 64.5723 215.839 64.5556 215.168 64.522C214.531 64.4885 214.028 64.4382 213.659 64.3711C213.726 66.5514 213.81 68.8658 213.911 71.3145C214.045 73.7296 214.213 76.0608 214.414 78.3082C214.615 80.5556 214.867 82.5849 215.168 84.3962C215.47 86.174 215.823 87.5325 216.225 88.4717C216.929 90.0482 217.835 91.2893 218.942 92.195C220.049 93.0671 221.139 93.7547 222.212 94.2579C223.285 94.7946 224.208 95.2138 224.979 95.5157C225.751 95.8176 226.136 96.1363 226.136 96.4717C226.136 96.9078 225.65 97.1258 224.677 97.1258C223.604 97.1258 222.397 96.9581 221.055 96.6227C219.713 96.3208 218.254 95.9853 216.678 95.6164C215.135 95.2474 213.491 94.8952 211.747 94.5598C210.003 94.2579 208.192 94.1069 206.314 94.1069C204.503 94.1069 202.641 94.174 200.729 94.3082C198.817 94.4759 197.073 94.5598 195.497 94.5598C193.317 94.5598 191.757 94.4088 190.818 94.1069C189.879 93.805 189.409 93.3019 189.409 92.5975C189.409 92.1614 189.543 91.8092 189.812 91.5409C190.08 91.2725 190.6 91.1384 191.371 91.1384C192.243 91.1384 193.015 91.1551 193.686 91.1887C194.39 91.2222 195.094 91.239 195.799 91.239C197.442 91.239 198.851 91.1216 200.025 90.8868C201.232 90.652 202.205 90.1824 202.943 89.478C203.681 88.7401 204.217 87.717 204.553 86.4088C204.922 85.1006 205.106 83.3732 205.106 81.2264C205.106 80.3543 205.073 78.912 205.006 76.8994C204.939 74.8868 204.821 72.5556 204.653 69.9057C204.486 67.2558 204.268 64.4214 203.999 61.4025C203.765 58.3837 203.48 55.4319 203.144 52.5472C202.809 49.6289 202.406 46.912 201.937 44.3962C201.467 41.8805 200.947 39.8008 200.377 38.1572C199.773 36.5136 199.052 35.2222 198.214 34.283C197.375 33.3438 196.419 32.6226 195.346 32.1195C194.306 31.6164 193.166 31.2809 191.925 31.1132C190.717 30.9455 189.443 30.7946 188.101 30.6604C187.531 30.5933 187.078 30.4759 186.743 30.3082C186.407 30.1069 186.24 29.7715 186.24 29.3019C186.24 28.8994 186.374 28.5639 186.642 28.2956C186.91 27.9937 187.464 27.8092 188.302 27.7421C189.242 27.6751 190.08 27.6415 190.818 27.6415C191.556 27.6415 192.294 27.6415 193.032 27.6415C194.038 27.6415 195.011 27.6415 195.95 27.6415C196.889 27.6415 197.878 27.6247 198.918 27.5912C199.991 27.5241 201.165 27.4403 202.44 27.3396C203.748 27.2055 205.257 27.0377 206.968 26.8365C209.181 26.6017 211.194 26.2495 213.005 25.7799C214.85 25.2767 216.594 24.7904 218.237 24.3208C219.915 23.8176 221.541 23.3983 223.118 23.0629C224.728 22.6939 226.421 22.5094 228.199 22.5094ZM213.559 61.7547C217.449 61.7212 220.787 61.1677 223.57 60.0943C226.388 59.021 228.702 57.5618 230.513 55.717C232.325 53.8386 233.649 51.6415 234.488 49.1258C235.36 46.6101 235.796 43.8931 235.796 40.9748C235.796 35.7757 234.84 31.8679 232.928 29.2516C231.016 26.6017 228.3 25.2767 224.778 25.2767C223.302 25.2767 221.994 25.5451 220.854 26.0818C219.713 26.5849 218.707 27.3061 217.835 28.2453C216.996 29.1509 216.309 30.2579 215.772 31.566C215.236 32.8407 214.833 34.2495 214.565 35.7925C214.062 39.0126 213.743 42.2159 213.609 45.4025C213.508 48.5556 213.458 51.608 213.458 54.5598L213.559 61.7547Z" fill="#FFE600"/>
<path d="M320.57 10.6855C321.073 10.6855 321.409 10.8029 321.576 11.0377C321.778 11.2725 321.878 11.6247 321.878 12.0943C321.878 12.6981 321.828 13.3857 321.727 14.1572C321.66 14.9287 321.576 15.9015 321.476 17.0755C321.375 18.2159 321.275 19.608 321.174 21.2516C321.107 22.8616 321.073 24.8239 321.073 27.1384C321.073 27.5744 321.006 27.9602 320.872 28.2956C320.738 28.631 320.486 28.7987 320.117 28.7987C319.581 28.7987 319.212 28.2453 319.011 27.1384C318.843 26.434 318.692 25.5451 318.558 24.4717C318.457 23.3648 318.289 22.0231 318.055 20.4465C317.887 19.1719 317.602 18.1824 317.199 17.478C316.83 16.7736 316.361 16.2537 315.791 15.9182C315.254 15.5828 314.667 15.3816 314.03 15.3145C313.392 15.2474 312.755 15.2138 312.118 15.2138C310.81 15.2138 309.3 15.2809 307.59 15.4151C305.913 15.5157 304.269 15.6499 302.659 15.8176C301.049 15.9518 299.59 16.1027 298.282 16.2704C297.008 16.4382 296.119 16.5891 295.616 16.7233C294.543 16.9916 293.872 17.4444 293.603 18.0818C293.369 18.6855 293.251 19.4067 293.251 20.2453C293.251 20.9832 293.268 22.0566 293.302 23.4654C293.335 24.8407 293.385 26.434 293.452 28.2453C293.52 30.0231 293.603 31.9518 293.704 34.0314C293.805 36.0776 293.889 38.1405 293.956 40.2201C294.056 42.2998 294.14 44.3124 294.207 46.2579C294.308 48.2034 294.392 49.9476 294.459 51.4906C295.197 51.5912 296.035 51.6918 296.974 51.7925C297.947 51.8595 298.903 51.8931 299.842 51.8931C300.949 51.8931 301.871 51.826 302.609 51.6918C303.381 51.5241 304.018 51.3061 304.521 51.0377C305.058 50.7694 305.477 50.4507 305.779 50.0818C306.081 49.6792 306.332 49.2432 306.533 48.7736C306.735 48.2704 306.869 47.7841 306.936 47.3145C307.036 46.8449 307.137 46.3082 307.238 45.7044C307.338 45.0671 307.489 44.6478 307.691 44.4465C307.892 44.2453 308.093 44.1447 308.294 44.1447C308.764 44.1447 308.999 44.5639 308.999 45.4025C308.999 46.1405 308.948 47.0461 308.848 48.1195C308.781 49.1929 308.697 50.3166 308.596 51.4906C308.495 52.6646 308.395 53.8554 308.294 55.0629C308.227 56.2704 308.194 57.3774 308.194 58.3837C308.194 59.2893 308.194 60.195 308.194 61.1006C308.227 62.0063 308.261 62.8449 308.294 63.6164C308.328 64.3878 308.345 65.0755 308.345 65.6792C308.378 66.283 308.395 66.7359 308.395 67.0377C308.395 67.5073 308.294 67.9602 308.093 68.3962C307.925 68.7987 307.607 69 307.137 69C306.366 69 305.93 68.3124 305.829 66.9371C305.795 66.6017 305.762 66.1321 305.728 65.5283C305.728 64.9245 305.712 64.2872 305.678 63.6164C305.645 62.9455 305.577 62.2746 305.477 61.6038C305.41 60.9329 305.309 60.3627 305.175 59.8931C305.007 59.3229 304.705 58.7694 304.269 58.2327C303.833 57.6625 303.146 57.2264 302.207 56.9245C301.804 56.7904 301.301 56.673 300.697 56.5723C300.127 56.4717 299.49 56.3878 298.785 56.3208C298.115 56.2537 297.41 56.2034 296.672 56.1698C295.968 56.1027 295.297 56.0524 294.66 56.0189C294.761 57.696 294.878 59.7757 295.012 62.2579C295.18 64.7065 295.348 67.3061 295.515 70.0566C295.716 72.7736 295.918 75.5241 296.119 78.3082C296.32 81.0922 296.505 83.6415 296.672 85.956C296.84 88.2704 296.974 90.2327 297.075 91.8428C297.209 93.4193 297.31 94.392 297.377 94.761C297.511 96.1363 297.863 97.1426 298.433 97.7799C299.003 98.4172 299.909 98.8197 301.15 98.9874C302.492 99.1887 304.118 99.2893 306.03 99.2893C308.579 99.2893 310.827 99.1551 312.772 98.8868C314.717 98.6185 316.411 98.1489 317.853 97.478C319.296 96.8071 320.52 95.9015 321.526 94.761C322.532 93.6541 323.371 92.2453 324.042 90.5346C324.411 89.6289 324.712 88.7401 324.947 87.8679C325.216 86.9623 325.434 86.1572 325.601 85.4528C325.803 84.7484 325.987 84.1782 326.155 83.7421C326.322 83.3061 326.507 83.0881 326.708 83.0881C326.976 83.0881 327.161 83.4067 327.262 84.044C327.396 84.6478 327.463 85.369 327.463 86.2076C327.463 87.4151 327.396 88.7568 327.262 90.2327C327.161 91.6751 327.01 93.1006 326.809 94.5094C326.607 95.9182 326.373 97.2264 326.104 98.434C325.87 99.6415 325.635 100.581 325.4 101.252C324.964 102.325 324.377 103.063 323.639 103.465C322.901 103.901 321.912 104.12 320.671 104.12C319.597 104.12 318.138 104.019 316.294 103.818C314.449 103.65 312.319 103.432 309.904 103.164C307.523 102.929 304.94 102.677 302.156 102.409C299.406 102.14 296.572 101.922 293.654 101.755C291.407 101.621 289.26 101.52 287.214 101.453C285.201 101.386 283.357 101.335 281.68 101.302C280.003 101.268 278.544 101.252 277.303 101.252C276.062 101.252 275.089 101.252 274.385 101.252C273.445 101.252 272.825 101.117 272.523 100.849C272.255 100.614 272.121 100.296 272.121 99.8931C272.121 99.3899 272.305 99.0377 272.674 98.8365C273.043 98.6352 273.513 98.5346 274.083 98.5346C274.452 98.5346 275.072 98.5681 275.944 98.6352C276.85 98.7359 277.94 98.7862 279.214 98.7862C279.65 98.7862 280.087 98.7694 280.523 98.7359C280.992 98.7359 281.495 98.7023 282.032 98.6352C283.239 98.6017 284.162 98.3837 284.799 97.9811C285.47 97.6122 285.956 97.1593 286.258 96.6227C286.56 96.1195 286.728 95.5828 286.761 95.0126C286.828 94.4424 286.862 93.9392 286.862 93.5032C286.795 90.2495 286.61 86.7778 286.308 83.0881C286.04 79.3648 285.738 75.7421 285.403 72.2201C285.101 68.6981 284.782 65.4612 284.447 62.5094C284.145 59.5577 283.91 57.2096 283.742 55.4654C283.642 54.325 283.508 52.9665 283.34 51.3899C283.172 49.7799 282.971 48.0692 282.736 46.2579C282.535 44.4465 282.3 42.6017 282.032 40.7233C281.797 38.8113 281.546 36.9665 281.277 35.1887C281.042 33.3774 280.791 31.7002 280.523 30.1572C280.288 28.6143 280.07 27.3061 279.869 26.2327C279.6 24.9245 279.298 23.8008 278.963 22.8616C278.661 21.9224 278.326 21.1006 277.957 20.3962C277.588 19.6918 277.185 19.0881 276.749 18.5849C276.347 18.0818 275.894 17.6457 275.391 17.2767C275.022 16.9748 274.586 16.6897 274.083 16.4214C273.58 16.1195 273.093 15.8344 272.624 15.566C272.188 15.2977 271.819 15.0461 271.517 14.8113C271.215 14.543 271.064 14.2579 271.064 13.956C271.064 13.4193 271.517 13.1509 272.422 13.1509C272.892 13.1509 273.546 13.218 274.385 13.3522C275.223 13.4528 276.263 13.5702 277.504 13.7044C278.778 13.8386 280.271 13.9727 281.982 14.1069C283.726 14.2075 285.721 14.2579 287.969 14.2579C289.713 14.2579 291.675 14.174 293.855 14.0063C296.035 13.805 298.266 13.587 300.546 13.3522C302.861 13.0839 305.141 12.7987 307.389 12.4969C309.636 12.1614 311.682 11.8763 313.527 11.6415C315.371 11.3732 316.914 11.1551 318.155 10.9874C319.43 10.7862 320.235 10.6855 320.57 10.6855Z" fill="#FFE600"/>
<path d="M392.263 5.80503C392.263 6.14046 392.029 6.45912 391.559 6.76101C391.123 7.02935 390.536 7.33124 389.798 7.66667C389.06 7.96855 388.205 8.32076 387.232 8.72327C386.293 9.09224 385.32 9.5283 384.314 10.0314C383.643 10.3669 383.09 10.8029 382.654 11.3396C382.251 11.8428 382.05 12.4801 382.05 13.2516C382.05 14.0901 382.419 15.1468 383.157 16.4214C383.929 17.696 384.851 19.0377 385.924 20.4465C387.031 21.8553 388.171 23.2642 389.345 24.673C390.553 26.0482 391.593 27.2558 392.465 28.2956C393.404 29.4361 394.527 30.7275 395.835 32.1698C397.177 33.6122 398.502 34.9874 399.81 36.2956C401.152 37.6038 402.393 38.7107 403.533 39.6164C404.707 40.4885 405.596 40.9413 406.2 40.9748C406.535 41.0084 406.971 40.8239 407.508 40.4214C408.078 39.9853 408.698 39.4319 409.369 38.761C410.04 38.0901 410.744 37.3354 411.482 36.4969C412.22 35.6247 412.941 34.7359 413.646 33.8302C414.383 32.9245 415.088 32.0524 415.759 31.2138C416.429 30.3753 417.016 29.6373 417.52 29C418.224 28.1279 419.029 27.0881 419.934 25.8805C420.84 24.673 421.695 23.4654 422.5 22.2579C423.305 21.0503 423.976 19.9099 424.513 18.8365C425.083 17.7631 425.368 16.9245 425.368 16.3208C425.368 15.9518 425.217 15.5996 424.915 15.2642C424.613 14.9287 424.228 14.6101 423.758 14.3082C423.289 13.9727 422.752 13.6709 422.148 13.4025C421.578 13.1342 420.991 12.8994 420.387 12.6981C419.784 12.4969 419.264 12.2621 418.828 11.9937C418.425 11.7254 418.224 11.3899 418.224 10.9874C418.224 10.652 418.341 10.4172 418.576 10.283C418.811 10.1153 419.113 10.0314 419.482 10.0314C419.985 10.0314 420.572 10.1488 421.243 10.3836C421.947 10.6184 422.785 10.9036 423.758 11.239C424.764 11.5744 425.938 11.9266 427.28 12.2956C428.622 12.6646 430.215 12.9832 432.059 13.2516C433.569 13.4528 434.927 13.6205 436.135 13.7547C437.376 13.8553 438.482 13.9392 439.455 14.0063C440.461 14.0398 441.35 14.0566 442.122 14.0566C442.927 14.0566 443.681 14.0566 444.386 14.0566C445.996 14.0566 446.801 14.4088 446.801 15.1132C446.801 15.9182 445.895 16.3208 444.084 16.3208C443.715 16.3208 443.161 16.304 442.424 16.2704C441.686 16.2369 440.83 16.2201 439.858 16.2201C439.153 16.2201 438.382 16.2369 437.543 16.2704C436.738 16.2704 435.917 16.3375 435.078 16.4717C434.273 16.5723 433.468 16.74 432.663 16.9748C431.892 17.2096 431.171 17.5451 430.5 17.9811C429.695 18.4843 428.856 19.2055 427.984 20.1447C427.112 21.0503 426.207 22.0734 425.267 23.2138C424.362 24.3208 423.423 25.5283 422.45 26.8365C421.477 28.1111 420.521 29.3857 419.582 30.6604C418.61 31.935 417.687 33.1761 416.815 34.3836C415.943 35.5912 415.121 36.7484 414.35 37.8553C413.579 38.9287 412.874 39.935 412.237 40.8742C411.633 41.7799 411.13 42.5681 410.728 43.239C409.99 44.3795 409.386 45.4193 408.916 46.3585C408.447 47.2977 408.061 48.2537 407.759 49.2264C407.491 50.1656 407.29 51.1719 407.155 52.2453C407.055 53.3187 407.005 54.543 407.005 55.9182C407.005 57.7631 407.021 59.7589 407.055 61.9057C407.122 64.0524 407.206 66.2327 407.306 68.4465C407.407 70.6604 407.508 72.8574 407.608 75.0377C407.709 77.1845 407.826 79.2138 407.96 81.1258C408.095 83.0377 408.212 84.7652 408.313 86.3082C408.447 87.8176 408.564 89.0419 408.665 89.9811C408.967 92.7652 409.453 94.9455 410.124 96.522C410.828 98.0985 411.717 99.3229 412.79 100.195C413.26 100.597 413.813 100.966 414.451 101.302C415.088 101.637 415.692 101.973 416.262 102.308C416.832 102.644 417.318 102.979 417.721 103.314C418.123 103.65 418.325 104.019 418.325 104.421C418.325 104.69 418.224 104.908 418.023 105.075C417.855 105.277 417.52 105.377 417.016 105.377C416.279 105.377 415.306 105.21 414.098 104.874C412.924 104.572 411.549 104.203 409.973 103.767C408.396 103.365 406.652 102.946 404.741 102.509C402.829 102.073 400.799 101.721 398.653 101.453C396.775 101.252 394.997 101.117 393.32 101.05C391.643 100.983 390.1 100.95 388.691 100.95C387.115 100.95 385.773 100.966 384.666 101C383.56 101.034 382.721 101.05 382.151 101.05C381.245 101.05 380.524 100.95 379.988 100.748C379.451 100.547 379.183 100.195 379.183 99.6918C379.183 99.1216 379.484 98.7023 380.088 98.434C380.692 98.1992 381.48 97.9979 382.453 97.8302C383.425 97.696 384.532 97.5283 385.773 97.327C387.048 97.1593 388.322 96.8742 389.597 96.4717C390.469 96.2034 391.19 95.8344 391.76 95.3648C392.364 94.8952 392.85 94.3417 393.219 93.7044C393.622 93.0671 393.924 92.3795 394.125 91.6415C394.36 90.9036 394.561 90.1153 394.729 89.2767C394.93 88.3711 395.148 87.0461 395.383 85.3019C395.617 83.5241 395.852 81.5115 396.087 79.2642C396.322 76.9832 396.506 74.5681 396.64 72.0189C396.808 69.4361 396.892 66.8868 396.892 64.3711C396.892 62.5933 396.842 60.9161 396.741 59.3396C396.674 57.7631 396.456 56.2034 396.087 54.6604C395.852 53.6541 395.349 52.3962 394.578 50.8868C393.806 49.3774 392.834 47.717 391.66 45.9057C390.519 44.0943 389.228 42.1992 387.786 40.2201C386.377 38.2076 384.901 36.2117 383.358 34.2327C381.849 32.2201 380.323 30.2746 378.78 28.3962C377.271 26.5178 375.828 24.8071 374.453 23.2642C373.112 21.7212 371.887 20.3962 370.781 19.2893C369.674 18.1488 368.802 17.327 368.164 16.8239C367.359 16.2201 366.605 15.717 365.9 15.3145C365.196 14.912 364.475 14.5765 363.737 14.3082C363.033 14.0063 362.278 13.7715 361.473 13.6038C360.702 13.4025 359.813 13.218 358.807 13.0503C357.197 12.8491 356.392 12.3627 356.392 11.5912C356.392 11.1887 356.559 10.8868 356.895 10.6855C357.264 10.4507 357.968 10.3333 359.008 10.3333C360.752 10.3333 362.798 10.2998 365.146 10.2327C367.494 10.1321 370.428 9.83019 373.95 9.32704C376.701 8.92453 379.032 8.4717 380.943 7.96855C382.889 7.46541 384.532 6.99581 385.874 6.55975C387.216 6.12369 388.306 5.75472 389.144 5.45283C389.983 5.15094 390.687 5 391.257 5C391.928 5 392.263 5.26834 392.263 5.80503Z" fill="#FFE600"/>
<path d="M468.032 14.761C473.969 14.761 479.369 15.7002 484.232 17.5786C489.095 19.457 493.254 22.0901 496.709 25.478C500.197 28.8323 502.881 32.8407 504.759 37.5031C506.671 42.1321 507.627 47.2306 507.627 52.7987C507.627 55.9518 507.291 59.0881 506.62 62.2076C505.95 65.327 504.943 68.2956 503.602 71.1132C502.26 73.9308 500.55 76.5472 498.47 78.9623C496.424 81.3774 494.009 83.4738 491.225 85.2516C488.475 87.0294 485.339 88.4214 481.817 89.4277C478.329 90.434 474.455 90.9371 470.195 90.9371C463.856 90.9371 458.288 89.9811 453.492 88.0692C448.696 86.1237 444.688 83.4403 441.468 80.0189C438.248 76.5639 435.816 72.4717 434.173 67.7421C432.563 62.979 431.758 57.7966 431.758 52.195C431.758 46.7275 432.646 41.7128 434.424 37.1509C436.202 32.5556 438.684 28.5975 441.87 25.2767C445.09 21.956 448.914 19.3732 453.341 17.5283C457.802 15.6834 462.699 14.761 468.032 14.761ZM465.969 17.3774C462.682 17.3774 459.714 18.1153 457.064 19.5912C454.448 21.0671 452.201 23.1803 450.322 25.9308C448.478 28.6478 447.052 31.9518 446.046 35.8428C445.04 39.7002 444.537 44.044 444.537 48.8742C444.537 51.6583 444.721 54.5598 445.09 57.5786C445.492 60.5975 446.113 63.566 446.952 66.4843C447.79 69.4025 448.897 72.1698 450.272 74.7862C451.647 77.4025 453.324 79.7002 455.303 81.6793C457.282 83.6583 459.58 85.2348 462.196 86.4088C464.845 87.5828 467.864 88.1698 471.252 88.1698C475.277 88.1698 478.664 87.3648 481.415 85.7547C484.165 84.1111 486.379 81.9644 488.056 79.3145C489.766 76.6646 490.99 73.6625 491.728 70.3082C492.5 66.9203 492.885 63.4822 492.885 59.9937C492.885 57.0755 492.718 53.9895 492.382 50.7359C492.081 47.4822 491.527 44.2788 490.722 41.1258C489.951 37.9727 488.894 34.9707 487.553 32.1195C486.244 29.2348 484.584 26.7023 482.572 24.522C480.593 22.3417 478.228 20.6143 475.478 19.3396C472.761 18.0314 469.591 17.3774 465.969 17.3774Z" fill="#FFE600"/>
<path d="M550.894 12.0943C551.766 12.0943 552.202 12.4465 552.202 13.1509C552.202 13.6541 551.967 14.1069 551.498 14.5094C551.062 14.912 550.274 15.3816 549.133 15.9182C548.53 16.1866 547.859 16.5052 547.121 16.8742C546.416 17.2432 545.679 17.6792 544.907 18.1824C544.169 18.652 543.431 19.2222 542.693 19.8931C541.956 20.5304 541.251 21.2683 540.58 22.1069C539.708 23.1803 538.954 24.5556 538.316 26.2327C537.679 27.9099 537.126 29.8218 536.656 31.9686C536.22 34.0818 535.885 36.3962 535.65 38.912C535.449 41.4277 535.348 44.0608 535.348 46.8113C535.348 49.8302 535.449 52.8323 535.65 55.8176C535.851 58.7694 536.187 61.587 536.656 64.2704C537.159 66.9539 537.813 69.4361 538.618 71.717C539.423 73.9979 540.413 75.9769 541.587 77.6541C542.794 79.3312 544.22 80.6394 545.863 81.5786C547.507 82.5178 549.418 82.9874 551.599 82.9874C554.382 82.9874 556.764 82.2495 558.743 80.7736C560.755 79.2977 562.399 77.4025 563.673 75.0881C564.981 72.7736 565.937 70.2076 566.541 67.3899C567.178 64.5723 567.497 61.805 567.497 59.0881C567.497 58.3837 567.48 57.4444 567.446 56.2704C567.446 55.0629 567.413 53.7379 567.346 52.2956C567.312 50.8533 567.228 49.3606 567.094 47.8176C566.994 46.2746 566.826 44.782 566.591 43.3396C566.356 41.8973 566.055 40.5891 565.686 39.4151C565.317 38.2076 564.881 37.2516 564.378 36.5472C563.874 35.8428 563.287 35.2055 562.617 34.6352C561.946 34.065 561.124 33.5451 560.151 33.0755C559.212 32.6059 558.089 32.2034 556.781 31.8679C555.472 31.5325 553.946 31.2306 552.202 30.9623C550.794 30.761 549.72 30.5262 548.982 30.2579C548.244 29.956 547.875 29.4361 547.875 28.6981C547.875 28.0608 548.161 27.6247 548.731 27.3899C549.335 27.1551 550.156 27.0377 551.196 27.0377C552.169 27.0377 553.225 27.1048 554.366 27.239C555.54 27.3732 556.781 27.5241 558.089 27.6918C559.43 27.826 560.839 27.9602 562.315 28.0943C563.791 28.2285 565.333 28.2956 566.943 28.2956C568.419 28.2956 569.895 28.2117 571.371 28.044C572.847 27.8763 574.255 27.7086 575.597 27.5409C576.972 27.3396 578.247 27.1551 579.421 26.9874C580.628 26.8197 581.701 26.7359 582.64 26.7359C583.814 26.7359 584.603 26.8365 585.005 27.0377C585.408 27.239 585.609 27.5241 585.609 27.8931C585.609 28.2956 585.374 28.5639 584.904 28.6981C584.435 28.8323 583.814 28.9329 583.043 29C582.238 29.0671 581.366 29.1342 580.427 29.2013C579.521 29.2683 578.616 29.4193 577.71 29.6541C576.804 29.8889 575.949 30.2411 575.144 30.7107C574.373 31.1803 573.735 31.8512 573.232 32.7233C572.561 33.8302 572.075 35.3396 571.773 37.2516C571.505 39.1635 571.32 41.2767 571.22 43.5912C571.119 45.9057 571.069 48.3208 571.069 50.8365C571.069 53.3187 571.002 55.7002 570.868 57.9811C570.801 59.3229 570.65 61.0335 570.415 63.1132C570.18 65.1593 569.778 67.3396 569.207 69.6541C568.637 71.935 567.849 74.2327 566.843 76.5472C565.837 78.8281 564.512 80.891 562.868 82.7359C561.258 84.5807 559.279 86.0902 556.931 87.2642C554.584 88.4046 551.783 88.9748 548.53 88.9748C545.377 88.9748 542.509 88.5052 539.926 87.566C537.344 86.6268 535.029 85.3019 532.983 83.5912C530.937 81.8805 529.177 79.8512 527.701 77.5032C526.225 75.1216 525.017 72.522 524.078 69.7044C523.508 67.9937 523.039 66.0818 522.67 63.9686C522.334 61.8218 522.049 59.5744 521.814 57.2264C521.613 54.8784 521.445 52.4633 521.311 49.9811C521.211 47.499 521.144 45.0335 521.11 42.5849C521.043 40.4717 520.942 38.5597 520.808 36.8491C520.674 35.1384 520.456 33.6289 520.154 32.3208C519.852 31.0126 519.433 29.9224 518.896 29.0503C518.393 28.1447 517.722 27.4403 516.884 26.9371C515.945 26.3669 514.972 25.9644 513.966 25.7296C512.993 25.4948 511.735 25.3774 510.193 25.3774C508.884 25.3774 508.23 24.9078 508.23 23.9686C508.23 23.1971 508.784 22.7107 509.891 22.5094C511.366 22.2746 512.842 22.0566 514.318 21.8553C515.827 21.6541 517.37 21.4361 518.947 21.2013C520.523 20.9665 522.15 20.7149 523.827 20.4465C525.504 20.1447 527.248 19.7757 529.059 19.3396C532.313 18.5346 535.164 17.7128 537.612 16.8742C540.061 16.0021 542.157 15.2138 543.901 14.5094C545.679 13.805 547.121 13.2348 548.228 12.7987C549.368 12.3291 550.257 12.0943 550.894 12.0943Z" fill="#FFE600"/>
</g>
<g filter="url(#filter1_di_55_107)">
<path d="M75.6708 147.271C81.9702 147.271 87.1409 148.19 91.183 150.027C95.2251 151.812 98.4273 154.122 100.79 156.957C103.152 159.739 104.779 162.837 105.672 166.249C106.616 169.609 107.089 172.864 107.089 176.014C107.089 179.111 106.695 182.261 105.908 185.463C105.12 188.613 103.939 191.579 102.364 194.362C100.842 197.144 98.9522 199.664 96.6949 201.922C94.4902 204.126 91.9442 205.806 89.057 206.961L85.8285 208.221C88.4008 215.939 91.4717 222.553 95.0414 228.066C98.611 233.578 102.443 238.119 106.538 241.689C110.685 245.259 114.989 247.884 119.451 249.564C123.966 251.244 128.454 252.084 132.916 252.084C135.488 252.084 137.825 251.742 139.924 251.06C142.077 250.377 143.914 249.38 145.436 248.067C147.011 246.703 148.218 245.075 149.058 243.185C149.898 241.243 150.318 239.012 150.318 236.492C150.318 234.602 150.213 233.027 150.003 231.767C149.793 230.507 149.557 229.483 149.295 228.696C149.085 227.856 148.875 227.199 148.665 226.727C148.455 226.254 148.35 225.834 148.35 225.467C148.35 225.204 148.402 224.995 148.507 224.837C148.612 224.627 148.822 224.522 149.137 224.522C149.61 224.522 150.187 224.916 150.869 225.703C151.552 226.438 152.182 227.436 152.759 228.696C153.389 229.956 153.914 231.399 154.334 233.027C154.754 234.602 154.964 236.229 154.964 237.909C154.964 241.899 154.387 245.6 153.232 249.012C152.077 252.425 150.292 255.391 147.877 257.911C145.515 260.431 142.523 262.399 138.901 263.817C135.279 265.234 131.026 265.943 126.144 265.943C119.32 265.943 113.205 264.919 107.798 262.872C102.443 260.877 97.6923 258.278 93.5452 255.076C89.3982 251.874 85.8285 248.304 82.8363 244.366C79.8441 240.376 77.2982 236.413 75.1984 232.476C73.0986 228.486 71.4188 224.732 70.1589 221.215C68.899 217.697 67.9279 214.81 67.2454 212.552C65.7231 212.762 64.2795 212.92 62.9146 213.025C61.5498 213.077 60.2636 213.104 59.0563 213.104C57.5864 213.104 56.3265 213.077 55.2766 213.025C54.2792 212.972 53.4918 212.894 52.9144 212.789C53.0194 216.201 53.1506 219.823 53.3081 223.656C53.5181 227.436 53.7805 231.084 54.0955 234.602C54.4105 238.119 54.8042 241.295 55.2766 244.13C55.7491 246.913 56.3003 249.039 56.9302 250.509C58.0326 252.976 59.45 254.918 61.1823 256.336C62.9146 257.701 64.6207 258.777 66.3005 259.565C67.9804 260.405 69.424 261.061 70.6313 261.533C71.8387 262.006 72.4424 262.504 72.4424 263.029C72.4424 263.712 71.6812 264.053 70.1589 264.053C68.4791 264.053 66.5892 263.791 64.4895 263.266C62.3897 262.793 60.1062 262.268 57.6389 261.691C55.2242 261.113 52.6519 260.562 49.9222 260.037C47.1925 259.565 44.3578 259.328 41.4181 259.328C38.5833 259.328 35.6699 259.433 32.6777 259.643C29.6855 259.906 26.9558 260.037 24.4885 260.037C21.0764 260.037 18.6354 259.801 17.1655 259.328C15.6957 258.856 14.9607 258.068 14.9607 256.966C14.9607 256.283 15.1707 255.732 15.5907 255.312C16.0106 254.892 16.8243 254.682 18.0317 254.682C19.3965 254.682 20.6039 254.708 21.6538 254.761C22.7562 254.813 23.8586 254.84 24.961 254.84C27.5332 254.84 29.738 254.656 31.5753 254.289C33.4651 253.921 34.9875 253.186 36.1423 252.084C37.2972 250.929 38.1371 249.327 38.6621 247.28C39.2395 245.233 39.5282 242.529 39.5282 239.169C39.5282 237.804 39.4758 235.547 39.3708 232.397C39.2658 229.247 39.082 225.598 38.8196 221.451C38.5571 217.304 38.2159 212.867 37.7959 208.143C37.4285 203.418 36.9823 198.798 36.4573 194.283C35.9324 189.716 35.3024 185.463 34.5675 181.526C33.8326 177.589 33.0189 174.334 32.1265 171.761C31.1816 169.189 30.053 167.168 28.7406 165.698C27.4282 164.228 25.9321 163.099 24.2523 162.312C22.625 161.524 20.8401 160.999 18.8978 160.737C17.008 160.474 15.0132 160.238 12.9135 160.028C12.021 159.923 11.3124 159.739 10.7874 159.477C10.2625 159.162 10 158.637 10 157.902C10 157.272 10.21 156.747 10.6299 156.327C11.0499 155.854 11.9161 155.566 13.2284 155.461C14.6983 155.356 16.0106 155.303 17.1655 155.303C18.3204 155.303 19.4753 155.303 20.6302 155.303C22.205 155.303 23.7274 155.303 25.1972 155.303C26.6671 155.303 28.2156 155.277 29.843 155.224C31.5228 155.119 33.3601 154.988 35.3549 154.831C37.4022 154.621 39.7645 154.358 42.4417 154.043C45.9063 153.676 49.056 153.124 51.8907 152.389C54.7779 151.602 57.5077 150.841 60.0799 150.106C62.7046 149.318 65.2506 148.662 67.7179 148.137C70.2376 147.56 72.8886 147.271 75.6708 147.271ZM52.7569 208.694C58.8463 208.641 64.0695 207.775 68.4266 206.095C72.8361 204.415 76.4582 202.132 79.293 199.244C82.1277 196.304 84.2012 192.866 85.5136 188.928C86.8784 184.991 87.5609 180.739 87.5609 176.171C87.5609 168.034 86.0648 161.918 83.0726 157.823C80.0804 153.676 75.8283 151.602 70.3164 151.602C68.0066 151.602 65.9593 152.022 64.1745 152.862C62.3897 153.649 60.8148 154.778 59.45 156.248C58.1376 157.666 57.0615 159.398 56.2215 161.445C55.3816 163.44 54.7517 165.645 54.3317 168.06C53.5443 173.1 53.0456 178.114 52.8356 183.101C52.6782 188.036 52.5994 192.813 52.5994 197.433L52.7569 208.694Z" fill="#FFE600"/>
<path d="M220.241 128.765C221.029 128.765 221.553 128.949 221.816 129.317C222.131 129.684 222.288 130.235 222.288 130.97C222.288 131.915 222.21 132.991 222.052 134.199C221.947 135.406 221.816 136.929 221.658 138.766C221.501 140.551 221.344 142.73 221.186 145.302C221.081 147.822 221.029 150.893 221.029 154.516C221.029 155.198 220.924 155.802 220.714 156.327C220.504 156.852 220.11 157.114 219.532 157.114C218.693 157.114 218.115 156.248 217.8 154.516C217.538 153.413 217.301 152.022 217.091 150.342C216.934 148.61 216.671 146.51 216.304 144.042C216.042 142.047 215.595 140.499 214.965 139.396C214.388 138.294 213.653 137.48 212.761 136.955C211.921 136.43 211.002 136.115 210.005 136.01C209.007 135.905 208.01 135.853 207.012 135.853C204.965 135.853 202.603 135.958 199.926 136.168C197.301 136.325 194.729 136.535 192.209 136.798C189.689 137.007 187.406 137.244 185.358 137.506C183.364 137.769 181.973 138.005 181.185 138.215C179.505 138.635 178.455 139.344 178.035 140.341C177.668 141.286 177.484 142.415 177.484 143.727C177.484 144.882 177.51 146.562 177.563 148.767C177.615 150.92 177.694 153.413 177.799 156.248C177.904 159.03 178.035 162.049 178.193 165.304C178.35 168.506 178.482 171.735 178.587 174.99C178.744 178.245 178.875 181.395 178.98 184.44C179.138 187.485 179.269 190.214 179.374 192.629C180.529 192.787 181.841 192.944 183.311 193.102C184.833 193.207 186.33 193.259 187.799 193.259C189.532 193.259 190.975 193.154 192.13 192.944C193.338 192.682 194.335 192.341 195.122 191.921C195.962 191.501 196.619 191.002 197.091 190.424C197.563 189.794 197.957 189.112 198.272 188.377C198.587 187.59 198.797 186.828 198.902 186.093C199.06 185.358 199.217 184.518 199.374 183.573C199.532 182.576 199.768 181.92 200.083 181.605C200.398 181.29 200.713 181.132 201.028 181.132C201.763 181.132 202.13 181.788 202.13 183.101C202.13 184.256 202.052 185.673 201.894 187.353C201.789 189.033 201.658 190.792 201.501 192.629C201.343 194.467 201.186 196.33 201.028 198.22C200.923 200.11 200.871 201.843 200.871 203.418C200.871 204.835 200.871 206.253 200.871 207.67C200.923 209.088 200.976 210.4 201.028 211.607C201.081 212.815 201.107 213.891 201.107 214.836C201.159 215.781 201.186 216.49 201.186 216.962C201.186 217.697 201.028 218.406 200.713 219.088C200.451 219.718 199.952 220.033 199.217 220.033C198.01 220.033 197.327 218.957 197.17 216.805C197.117 216.28 197.065 215.545 197.012 214.6C197.012 213.655 196.986 212.657 196.933 211.607C196.881 210.557 196.776 209.508 196.619 208.458C196.514 207.408 196.356 206.515 196.146 205.78C195.884 204.888 195.411 204.021 194.729 203.181C194.046 202.289 192.97 201.607 191.5 201.134C190.87 200.924 190.083 200.74 189.138 200.583C188.246 200.425 187.248 200.294 186.146 200.189C185.096 200.084 183.994 200.005 182.839 199.953C181.736 199.848 180.686 199.769 179.689 199.717C179.846 202.342 180.03 205.596 180.24 209.481C180.503 213.314 180.765 217.382 181.028 221.687C181.343 225.939 181.658 230.244 181.973 234.602C182.287 238.959 182.576 242.949 182.839 246.571C183.101 250.194 183.311 253.265 183.469 255.785C183.679 258.252 183.836 259.775 183.941 260.352C184.151 262.504 184.702 264.079 185.595 265.077C186.487 266.074 187.904 266.704 189.847 266.967C191.946 267.282 194.492 267.439 197.485 267.439C201.474 267.439 204.991 267.229 208.036 266.809C211.081 266.389 213.732 265.654 215.989 264.604C218.246 263.554 220.162 262.137 221.737 260.352C223.312 258.62 224.624 256.415 225.674 253.737C226.252 252.32 226.724 250.929 227.092 249.564C227.512 248.146 227.853 246.886 228.115 245.784C228.43 244.681 228.719 243.789 228.981 243.106C229.244 242.424 229.533 242.083 229.848 242.083C230.268 242.083 230.556 242.581 230.714 243.579C230.924 244.524 231.029 245.653 231.029 246.965C231.029 248.855 230.924 250.955 230.714 253.265C230.556 255.522 230.32 257.753 230.005 259.958C229.69 262.163 229.323 264.211 228.903 266.101C228.535 267.991 228.168 269.46 227.8 270.51C227.118 272.19 226.199 273.345 225.044 273.975C223.889 274.658 222.341 274.999 220.399 274.999C218.719 274.999 216.435 274.842 213.548 274.527C210.661 274.264 207.327 273.923 203.548 273.503C199.821 273.135 195.779 272.742 191.422 272.322C187.117 271.902 182.681 271.56 178.114 271.298C174.597 271.088 171.237 270.93 168.035 270.825C164.885 270.72 161.998 270.642 159.374 270.589C156.749 270.537 154.465 270.51 152.523 270.51C150.581 270.51 149.058 270.51 147.956 270.51C146.486 270.51 145.515 270.3 145.043 269.88C144.623 269.513 144.413 269.014 144.413 268.384C144.413 267.597 144.701 267.046 145.279 266.731C145.856 266.416 146.591 266.258 147.484 266.258C148.061 266.258 149.032 266.311 150.397 266.416C151.814 266.573 153.52 266.652 155.515 266.652C156.198 266.652 156.88 266.626 157.562 266.573C158.297 266.573 159.085 266.521 159.925 266.416C161.815 266.363 163.258 266.022 164.256 265.392C165.305 264.814 166.067 264.106 166.539 263.266C167.012 262.478 167.274 261.638 167.326 260.746C167.431 259.853 167.484 259.066 167.484 258.383C167.379 253.291 167.09 247.857 166.618 242.083C166.198 236.255 165.725 230.586 165.2 225.073C164.728 219.561 164.229 214.495 163.704 209.875C163.232 205.255 162.864 201.58 162.602 198.85C162.444 197.065 162.235 194.939 161.972 192.472C161.71 189.952 161.395 187.275 161.027 184.44C160.712 181.605 160.345 178.717 159.925 175.777C159.557 172.785 159.164 169.898 158.744 167.115C158.376 164.28 157.982 161.655 157.562 159.24C157.195 156.826 156.854 154.778 156.539 153.098C156.119 151.051 155.646 149.292 155.121 147.822C154.649 146.352 154.124 145.066 153.547 143.964C152.969 142.861 152.339 141.916 151.657 141.129C151.027 140.341 150.318 139.659 149.531 139.081C148.953 138.609 148.271 138.162 147.484 137.742C146.696 137.27 145.935 136.824 145.2 136.404C144.518 135.984 143.94 135.59 143.468 135.223C142.995 134.803 142.759 134.356 142.759 133.884C142.759 133.044 143.468 132.624 144.885 132.624C145.62 132.624 146.644 132.729 147.956 132.939C149.268 133.096 150.896 133.28 152.838 133.49C154.833 133.7 157.169 133.91 159.846 134.12C162.576 134.278 165.699 134.356 169.216 134.356C171.946 134.356 175.017 134.225 178.429 133.963C181.841 133.648 185.332 133.306 188.902 132.939C192.524 132.519 196.094 132.073 199.611 131.6C203.128 131.075 206.33 130.629 209.217 130.261C212.104 129.841 214.519 129.5 216.462 129.238C218.456 128.923 219.716 128.765 220.241 128.765Z" fill="#FFE600"/>
<path d="M301.03 125.852C301.398 125.852 301.818 126.298 302.29 127.19C302.763 128.083 303.209 129.133 303.629 130.34C304.101 131.495 304.521 132.676 304.889 133.884C305.309 135.039 305.624 135.905 305.834 136.483C306.989 139.895 308.275 143.754 309.692 148.058C311.109 152.363 312.605 156.957 314.18 161.839C315.808 166.721 317.487 171.814 319.22 177.116C321.005 182.366 322.763 187.642 324.496 192.944C326.28 198.194 328.039 203.391 329.771 208.536C331.504 213.681 333.157 218.59 334.732 223.262C336.307 227.882 337.777 232.161 339.142 236.098C340.559 239.983 341.819 243.369 342.921 246.256C344.181 249.669 345.415 252.399 346.622 254.446C347.829 256.493 349.116 258.121 350.48 259.328C351.845 260.536 353.341 261.428 354.969 262.006C356.648 262.583 358.565 263.108 360.717 263.581C362.292 263.896 363.079 264.473 363.079 265.313C363.079 265.891 362.79 266.284 362.213 266.494C361.635 266.704 360.979 266.809 360.244 266.809C359.089 266.809 357.62 266.783 355.835 266.731C354.05 266.678 352.003 266.652 349.693 266.652C347.856 266.652 345.861 266.678 343.709 266.731C341.609 266.836 339.43 266.967 337.173 267.124C333.656 267.387 330.401 267.807 327.409 268.384C324.417 269.014 321.713 269.618 319.299 270.195C316.884 270.825 314.758 271.377 312.92 271.849C311.136 272.322 309.692 272.558 308.59 272.558C308.012 272.558 307.54 272.4 307.172 272.085C306.857 271.823 306.7 271.455 306.7 270.983C306.7 270.3 306.884 269.749 307.251 269.329C307.618 268.909 308.327 268.542 309.377 268.227C309.797 268.122 310.401 267.964 311.188 267.754C311.976 267.544 312.842 267.308 313.787 267.046C314.732 266.783 315.703 266.468 316.7 266.101C317.75 265.786 318.695 265.418 319.535 264.998C320.585 264.421 321.53 263.659 322.369 262.714C323.209 261.77 323.629 260.326 323.629 258.383C323.629 257.963 323.577 257.386 323.472 256.651C323.419 255.916 323.314 255.26 323.157 254.682C322.212 251.007 321.241 247.28 320.243 243.5C319.246 239.72 318.249 236.124 317.251 232.712C316.254 229.299 315.309 226.149 314.417 223.262C313.524 220.375 312.71 218.012 311.976 216.175C310.768 213.13 309.377 210.82 307.802 209.245C306.227 207.618 304.495 206.358 302.605 205.465C302.08 205.255 301.214 204.914 300.007 204.441C298.799 203.969 297.356 203.47 295.676 202.945C294.049 202.368 292.29 201.764 290.4 201.134C288.51 200.504 286.647 199.9 284.81 199.323C282.972 198.693 281.24 198.142 279.613 197.669C278.038 197.144 276.725 196.698 275.675 196.33C274.416 200.373 273.156 204.389 271.896 208.379C270.688 212.316 269.56 215.965 268.51 219.325C267.513 222.632 266.62 225.546 265.833 228.066C265.098 230.586 264.573 232.423 264.258 233.578C263.838 234.943 263.549 236.177 263.392 237.279C263.234 238.382 263.156 239.353 263.156 240.193C263.156 241.715 263.365 243.001 263.785 244.051C264.258 245.049 264.862 245.915 265.596 246.65C266.331 247.333 267.171 247.936 268.116 248.461C269.114 248.934 270.137 249.406 271.187 249.879C272.08 250.299 272.867 250.771 273.549 251.296C274.232 251.769 274.573 252.372 274.573 253.107C274.573 253.58 274.363 254 273.943 254.367C273.576 254.682 272.972 254.84 272.132 254.84C271.24 254.84 270.111 254.63 268.746 254.21C267.381 253.79 265.859 253.265 264.179 252.635C262.552 252.005 260.819 251.349 258.982 250.666C257.145 249.931 255.308 249.275 253.47 248.697C252 248.277 250.478 247.91 248.903 247.595C247.328 247.228 245.806 246.939 244.336 246.729C242.866 246.519 241.528 246.361 240.32 246.256C239.165 246.099 238.273 245.994 237.643 245.941C236.331 245.836 235.386 245.653 234.808 245.39C234.231 245.128 233.942 244.629 233.942 243.894C233.942 243.369 234.1 242.949 234.415 242.634C234.782 242.266 235.386 242.083 236.226 242.083C236.541 242.083 237.092 242.109 237.879 242.161C238.719 242.214 239.664 242.24 240.714 242.24C243.234 242.24 245.334 242.083 247.013 241.768C248.693 241.453 250.111 240.954 251.265 240.271C252.42 239.589 253.365 238.749 254.1 237.752C254.888 236.702 255.596 235.468 256.226 234.05C256.856 232.685 257.617 230.874 258.51 228.617C259.402 226.307 260.347 223.813 261.344 221.136C262.394 218.406 263.444 215.597 264.494 212.71C265.544 209.77 266.515 207.014 267.408 204.441C268.352 201.817 269.166 199.507 269.849 197.512C270.531 195.464 271.03 193.942 271.345 192.944C271.765 191.579 272.342 189.716 273.077 187.353C273.864 184.938 274.731 182.261 275.675 179.321C276.62 176.381 277.565 173.336 278.51 170.186C279.508 166.984 280.4 163.939 281.187 161.052C282.027 158.112 282.684 155.461 283.156 153.098C283.681 150.683 283.943 148.793 283.943 147.428C283.943 146.378 283.655 145.512 283.077 144.83C282.5 144.095 281.555 143.727 280.243 143.727C279.088 143.727 277.775 143.806 276.305 143.964C274.888 144.121 273.444 144.278 271.975 144.436C270.505 144.593 269.061 144.751 267.644 144.908C266.279 145.066 265.098 145.145 264.1 145.145C262.158 145.145 261.187 144.462 261.187 143.097C261.187 141.837 262.106 141.129 263.943 140.971C265.203 140.919 266.62 140.787 268.195 140.577C269.822 140.367 271.528 140.079 273.313 139.711C275.098 139.344 276.883 138.897 278.668 138.372C280.505 137.795 282.264 137.112 283.943 136.325C286.621 135.118 288.904 133.884 290.794 132.624C292.684 131.364 294.285 130.235 295.597 129.238C296.962 128.24 298.064 127.427 298.904 126.797C299.797 126.167 300.505 125.852 301.03 125.852ZM277.014 192.078C278.641 192.656 280.715 193.391 283.235 194.283C285.807 195.123 288.405 195.963 291.03 196.803C293.655 197.59 296.07 198.273 298.274 198.85C300.532 199.428 302.159 199.717 303.156 199.717C303.786 199.717 304.338 199.507 304.81 199.087C305.282 198.614 305.519 197.905 305.519 196.96C305.519 196.173 305.282 194.756 304.81 192.708C304.338 190.608 303.734 188.246 302.999 185.621C302.317 182.943 301.555 180.161 300.715 177.274C299.876 174.334 299.088 171.63 298.353 169.163C297.618 166.695 296.988 164.648 296.463 163.02C295.991 161.34 295.728 160.395 295.676 160.185C295.466 159.555 295.177 158.663 294.81 157.508C294.495 156.301 294.127 155.119 293.707 153.964C293.34 152.809 292.946 151.812 292.526 150.972C292.159 150.132 291.87 149.712 291.66 149.712C291.45 149.712 291.161 150.001 290.794 150.578C290.479 151.156 290.138 151.864 289.77 152.704C289.403 153.492 289.035 154.358 288.668 155.303C288.3 156.248 288.012 157.114 287.802 157.902L277.014 192.078Z" fill="#FFE600"/>
<path d="M425.049 150.342C430.508 150.342 435.417 150.972 439.774 152.232C444.131 153.492 447.989 155.224 451.349 157.429C454.709 159.634 457.569 162.259 459.932 165.304C462.294 168.296 464.236 171.578 465.759 175.147C467.281 178.665 468.383 182.392 469.066 186.33C469.801 190.267 470.168 194.231 470.168 198.22C470.168 203.208 469.669 208.09 468.672 212.867C467.675 217.645 466.074 222.133 463.869 226.333C461.664 230.481 458.777 234.234 455.207 237.594C451.69 240.954 447.385 243.736 442.294 245.941C439.459 247.201 436.703 248.251 434.026 249.091C431.348 249.931 428.671 250.692 425.994 251.375C423.369 252.005 420.692 252.635 417.962 253.265C415.233 253.895 412.398 254.63 409.458 255.47C406.571 256.257 403.552 257.228 400.403 258.383C397.253 259.538 393.893 260.982 390.324 262.714C384.654 265.497 379.93 268.201 376.15 270.825C372.371 273.503 369.221 275.892 366.701 277.991C364.234 280.091 362.265 281.771 360.796 283.031C359.326 284.344 358.092 285 357.095 285C356.045 285 355.52 284.475 355.52 283.425C355.52 282.743 355.94 281.981 356.78 281.141C357.672 280.354 358.827 279.356 360.244 278.149C361.662 276.994 363.237 275.577 364.969 273.897C366.701 272.217 368.434 270.169 370.166 267.754C372.476 264.604 374.392 261.087 375.914 257.202C377.436 253.317 378.434 249.144 378.906 244.681C379.011 243.526 379.116 242.004 379.221 240.114C379.379 238.172 379.484 235.993 379.536 233.578C379.641 231.111 379.72 228.459 379.772 225.624C379.825 222.737 379.851 219.745 379.851 216.647C379.851 211.817 379.772 206.883 379.615 201.843C379.457 196.75 379.195 191.947 378.827 187.432C378.513 182.917 378.066 178.875 377.489 175.305C376.911 171.683 376.203 168.9 375.363 166.958C374.628 165.278 373.709 163.887 372.607 162.784C371.557 161.682 370.455 160.763 369.3 160.028C368.197 159.293 367.069 158.716 365.914 158.296C364.811 157.823 363.788 157.429 362.843 157.114C361.95 156.747 361.216 156.406 360.638 156.091C360.113 155.723 359.851 155.303 359.851 154.831C359.851 153.991 360.559 153.571 361.977 153.571C362.922 153.571 363.945 153.649 365.048 153.807C366.203 153.912 367.515 154.043 368.985 154.201C370.455 154.358 372.108 154.516 373.945 154.673C375.783 154.778 377.909 154.831 380.324 154.831C384.208 154.831 388.119 154.594 392.056 154.122C395.993 153.649 399.852 153.151 403.631 152.626C407.463 152.048 411.164 151.523 414.734 151.051C418.356 150.578 421.794 150.342 425.049 150.342ZM413.553 155.697C408.041 155.697 403.684 156.301 400.482 157.508C397.279 158.716 395.363 160.29 394.733 162.233C394.313 163.545 393.972 165.514 393.71 168.139C393.5 170.764 393.395 173.809 393.395 177.274C393.395 181.211 393.473 185.516 393.631 190.188C393.841 194.808 394.077 199.349 394.34 203.811C394.655 208.221 394.97 212.369 395.285 216.254C395.652 220.086 395.993 223.21 396.308 225.624C396.623 228.092 396.991 230.271 397.411 232.161C397.883 234.05 398.355 235.73 398.828 237.2C399.353 238.67 399.93 239.956 400.56 241.059C401.19 242.161 401.873 243.159 402.608 244.051C403.395 244.996 404.34 245.81 405.442 246.493C406.545 247.175 407.7 247.726 408.907 248.146C410.167 248.566 411.427 248.881 412.687 249.091C413.999 249.249 415.259 249.327 416.466 249.327C420.508 249.327 424.078 248.592 427.175 247.122C430.325 245.6 433.054 243.605 435.364 241.138C437.727 238.618 439.721 235.73 441.349 232.476C442.976 229.168 444.288 225.703 445.286 222.081C446.283 218.458 446.992 214.81 447.412 211.135C447.884 207.408 448.12 203.864 448.12 200.504C448.12 194.782 447.569 189.716 446.467 185.306C445.417 180.844 444 176.959 442.215 173.651C440.43 170.291 438.356 167.483 435.994 165.225C433.684 162.968 431.243 161.13 428.671 159.713C426.099 158.296 423.5 157.272 420.876 156.642C418.303 156.012 415.862 155.697 413.553 155.697Z" fill="#FFE600"/>
<path d="M492.452 121.127C492.452 121.652 492.085 122.15 491.35 122.623C490.667 123.043 489.749 123.515 488.594 124.04C487.439 124.513 486.1 125.064 484.578 125.694C483.108 126.272 481.586 126.954 480.011 127.742C478.961 128.267 478.095 128.949 477.412 129.789C476.783 130.576 476.468 131.574 476.468 132.781C476.468 134.094 477.045 135.748 478.2 137.742C479.407 139.737 480.851 141.837 482.531 144.042C484.263 146.247 486.048 148.452 487.885 150.657C489.775 152.809 491.402 154.699 492.767 156.327C494.237 158.112 495.996 160.133 498.043 162.39C500.143 164.648 502.216 166.8 504.263 168.848C506.363 170.895 508.306 172.628 510.09 174.045C511.928 175.41 513.319 176.119 514.264 176.171C514.789 176.224 515.471 175.935 516.311 175.305C517.203 174.622 518.175 173.756 519.224 172.706C520.274 171.656 521.377 170.475 522.532 169.163C523.687 167.798 524.815 166.406 525.918 164.989C527.072 163.572 528.175 162.207 529.225 160.894C530.275 159.582 531.193 158.427 531.981 157.429C533.083 156.064 534.343 154.437 535.76 152.547C537.178 150.657 538.516 148.767 539.776 146.877C541.036 144.987 542.086 143.202 542.926 141.522C543.818 139.842 544.264 138.53 544.264 137.585C544.264 137.007 544.028 136.456 543.556 135.931C543.083 135.406 542.48 134.908 541.745 134.435C541.01 133.91 540.17 133.438 539.225 133.018C538.333 132.598 537.414 132.23 536.469 131.915C535.524 131.6 534.71 131.233 534.028 130.813C533.398 130.393 533.083 129.868 533.083 129.238C533.083 128.713 533.267 128.345 533.634 128.135C534.002 127.873 534.474 127.742 535.052 127.742C535.839 127.742 536.758 127.925 537.808 128.293C538.91 128.66 540.222 129.107 541.745 129.631C543.32 130.156 545.157 130.708 547.257 131.285C549.356 131.863 551.85 132.361 554.737 132.781C557.099 133.096 559.225 133.359 561.115 133.569C563.057 133.726 564.79 133.858 566.312 133.963C567.887 134.015 569.278 134.041 570.485 134.041C571.745 134.041 572.927 134.041 574.029 134.041C576.549 134.041 577.808 134.593 577.808 135.695C577.808 136.955 576.391 137.585 573.556 137.585C572.979 137.585 572.113 137.559 570.958 137.506C569.803 137.454 568.464 137.427 566.942 137.427C565.84 137.427 564.632 137.454 563.32 137.506C562.06 137.506 560.774 137.611 559.462 137.821C558.202 137.979 556.942 138.241 555.682 138.609C554.475 138.976 553.346 139.501 552.296 140.184C551.036 140.971 549.724 142.1 548.359 143.57C546.994 144.987 545.577 146.588 544.107 148.373C542.69 150.106 541.22 151.996 539.697 154.043C538.175 156.038 536.679 158.033 535.209 160.028C533.687 162.023 532.243 163.965 530.878 165.855C529.513 167.745 528.227 169.556 527.02 171.289C525.813 172.969 524.71 174.544 523.713 176.014C522.768 177.431 521.98 178.665 521.35 179.715C520.196 181.5 519.251 183.127 518.516 184.597C517.781 186.067 517.177 187.563 516.705 189.086C516.285 190.556 515.97 192.131 515.76 193.811C515.602 195.491 515.524 197.407 515.524 199.559C515.524 202.447 515.55 205.57 515.602 208.93C515.707 212.29 515.839 215.702 515.996 219.167C516.154 222.632 516.311 226.071 516.468 229.483C516.626 232.843 516.81 236.019 517.02 239.012C517.23 242.004 517.413 244.708 517.571 247.122C517.781 249.485 517.965 251.401 518.122 252.871C518.595 257.228 519.356 260.641 520.406 263.108C521.508 265.576 522.899 267.492 524.579 268.857C525.314 269.487 526.18 270.064 527.177 270.589C528.175 271.114 529.12 271.639 530.012 272.164C530.905 272.689 531.666 273.214 532.296 273.739C532.926 274.264 533.241 274.842 533.241 275.472C533.241 275.892 533.083 276.233 532.768 276.495C532.506 276.81 531.981 276.968 531.193 276.968C530.038 276.968 528.516 276.705 526.626 276.18C524.789 275.708 522.637 275.13 520.169 274.448C517.702 273.818 514.972 273.162 511.98 272.479C508.988 271.797 505.812 271.245 502.452 270.825C499.513 270.51 496.73 270.3 494.106 270.195C491.481 270.09 489.066 270.038 486.861 270.038C484.394 270.038 482.294 270.064 480.562 270.117C478.83 270.169 477.517 270.195 476.625 270.195C475.208 270.195 474.079 270.038 473.239 269.723C472.399 269.408 471.979 268.857 471.979 268.069C471.979 267.177 472.452 266.521 473.397 266.101C474.342 265.733 475.575 265.418 477.098 265.156C478.62 264.946 480.352 264.683 482.294 264.368C484.289 264.106 486.284 263.659 488.279 263.029C489.644 262.609 490.772 262.032 491.665 261.297C492.61 260.562 493.371 259.696 493.948 258.698C494.578 257.701 495.051 256.625 495.366 255.47C495.733 254.315 496.048 253.081 496.311 251.769C496.625 250.351 496.967 248.277 497.334 245.548C497.702 242.765 498.069 239.615 498.437 236.098C498.804 232.528 499.093 228.748 499.303 224.758C499.565 220.716 499.696 216.726 499.696 212.789C499.696 210.006 499.618 207.381 499.46 204.914C499.355 202.447 499.014 200.005 498.437 197.59C498.069 196.015 497.282 194.047 496.074 191.684C494.867 189.322 493.345 186.723 491.507 183.888C489.722 181.053 487.701 178.087 485.444 174.99C483.239 171.84 480.93 168.716 478.515 165.619C476.153 162.469 473.764 159.424 471.349 156.484C468.987 153.544 466.73 150.867 464.578 148.452C462.478 146.037 460.562 143.964 458.829 142.231C457.097 140.446 455.732 139.16 454.735 138.372C453.475 137.427 452.294 136.64 451.191 136.01C450.089 135.38 448.96 134.855 447.805 134.435C446.703 133.963 445.522 133.595 444.262 133.333C443.055 133.018 441.664 132.729 440.089 132.466C437.569 132.151 436.309 131.39 436.309 130.183C436.309 129.553 436.572 129.08 437.097 128.765C437.674 128.398 438.776 128.214 440.404 128.214C443.133 128.214 446.336 128.162 450.01 128.057C453.685 127.899 458.278 127.427 463.79 126.639C468.095 126.009 471.743 125.3 474.735 124.513C477.78 123.725 480.352 122.99 482.452 122.308C484.552 121.626 486.258 121.048 487.57 120.576C488.883 120.103 489.985 119.867 490.877 119.867C491.927 119.867 492.452 120.287 492.452 121.127Z" fill="#FFE600"/>
<path d="M594.659 254.682C598.019 254.682 600.486 255.706 602.061 257.753C603.688 259.801 604.502 262.321 604.502 265.313C604.502 267.151 604.187 268.673 603.557 269.88C602.98 271.088 602.245 272.033 601.352 272.715C600.512 273.398 599.62 273.87 598.675 274.133C597.73 274.395 596.89 274.527 596.155 274.527C594.633 274.527 593.242 274.212 591.982 273.582C590.775 273.004 589.725 272.19 588.832 271.14C587.94 270.143 587.231 268.988 586.706 267.676C586.234 266.363 585.998 264.998 585.998 263.581C585.998 261.113 586.706 259.013 588.124 257.281C589.594 255.548 591.772 254.682 594.659 254.682ZM609.227 124.198C614.686 124.198 619.857 124.907 624.739 126.324C629.621 127.689 633.873 129.815 637.495 132.703C641.17 135.538 644.057 139.16 646.157 143.57C648.309 147.927 649.385 153.098 649.385 159.083C649.385 163.283 648.886 167.089 647.889 170.501C646.891 173.861 645.474 176.985 643.637 179.872C641.799 182.707 639.542 185.358 636.865 187.826C634.24 190.241 631.248 192.577 627.888 194.834C624.371 197.197 620.907 199.402 617.494 201.449C614.135 203.444 610.933 205.386 607.888 207.276C604.843 209.114 602.035 210.951 599.463 212.789C596.943 214.574 594.738 216.464 592.848 218.458C591.011 220.401 589.567 222.501 588.517 224.758C587.468 226.963 586.943 229.404 586.943 232.082C586.943 233.762 587.153 235.205 587.573 236.413C587.992 237.568 588.517 238.539 589.147 239.327C589.83 240.114 590.591 240.691 591.431 241.059C592.323 241.426 593.242 241.61 594.187 241.61C595.289 241.61 596.208 241.4 596.943 240.98C597.678 240.508 598.281 239.956 598.754 239.327C599.226 238.644 599.568 237.935 599.778 237.2C599.987 236.465 600.119 235.783 600.171 235.153C600.276 234.26 600.381 233.578 600.486 233.105C600.591 232.633 600.854 232.397 601.274 232.397C601.694 232.397 602.009 232.712 602.219 233.342C602.481 233.919 602.612 234.68 602.612 235.625C602.612 236.885 602.428 238.093 602.061 239.248C601.694 240.403 601.142 241.426 600.407 242.319C599.673 243.159 598.701 243.841 597.494 244.366C596.287 244.891 594.869 245.154 593.242 245.154C591.72 245.154 590.224 244.918 588.754 244.445C587.284 243.92 585.971 243.106 584.817 242.004C583.662 240.901 582.717 239.484 581.982 237.752C581.299 236.019 580.958 233.919 580.958 231.452C580.958 227.829 581.641 224.522 583.005 221.53C584.37 218.485 586.155 215.597 588.36 212.867C590.617 210.138 593.163 207.486 595.998 204.914C598.833 202.342 601.746 199.717 604.738 197.039C607.73 194.362 610.644 191.579 613.479 188.692C616.313 185.752 618.833 182.576 621.038 179.164C623.295 175.699 625.106 171.945 626.471 167.903C627.836 163.808 628.518 159.24 628.518 154.201C628.518 150.946 628.098 147.717 627.258 144.515C626.419 141.312 625.054 138.451 623.164 135.931C621.327 133.411 618.886 131.364 615.841 129.789C612.849 128.214 609.174 127.427 604.817 127.427C601.457 127.427 598.491 127.925 595.919 128.923C593.347 129.868 591.168 131.18 589.384 132.86C587.651 134.488 586.313 136.404 585.368 138.609C584.475 140.761 584.029 143.045 584.029 145.46C584.029 147.875 584.37 150.053 585.053 151.996C585.735 153.886 586.601 155.671 587.651 157.351C588.701 158.978 589.83 160.527 591.037 161.997C592.245 163.467 593.373 164.989 594.423 166.564C595.473 168.139 596.339 169.819 597.022 171.604C597.704 173.336 598.045 175.279 598.045 177.431C598.045 179.006 597.783 180.581 597.258 182.156C596.785 183.678 595.998 185.07 594.896 186.33C593.793 187.59 592.376 188.613 590.643 189.401C588.911 190.136 586.811 190.503 584.344 190.503C578.307 190.503 573.819 188.403 570.879 184.203C567.94 179.951 566.47 173.992 566.47 166.328C566.47 163.598 566.785 160.684 567.415 157.587C568.044 154.437 569.068 151.313 570.485 148.216C571.903 145.066 573.714 142.047 575.919 139.16C578.123 136.273 580.801 133.726 583.95 131.521C587.153 129.317 590.827 127.558 594.974 126.245C599.174 124.88 603.925 124.198 609.227 124.198Z" fill="#FFE600"/>
<path d="M673.638 263.896C672.325 263.896 671.039 263.633 669.779 263.108C668.572 262.636 667.469 261.953 666.472 261.061C665.527 260.168 664.766 259.066 664.188 257.753C663.611 256.441 663.322 254.945 663.322 253.265C663.322 251.27 663.637 249.616 664.267 248.304C664.897 246.939 665.685 245.836 666.629 244.996C667.627 244.156 668.703 243.579 669.858 243.264C671.065 242.896 672.22 242.713 673.323 242.713C674.582 242.713 675.816 242.949 677.023 243.421C678.231 243.894 679.333 244.576 680.331 245.469C681.328 246.309 682.115 247.385 682.693 248.697C683.323 250.01 683.638 251.48 683.638 253.107C683.638 254.84 683.375 256.388 682.85 257.753C682.325 259.066 681.59 260.168 680.646 261.061C679.753 262.006 678.703 262.714 677.496 263.187C676.288 263.659 675.002 263.896 673.638 263.896ZM673.638 225.939C673.165 225.887 672.824 225.441 672.614 224.601C672.456 223.761 672.325 222.606 672.22 221.136C672.168 219.613 672.141 217.802 672.141 215.702C672.194 213.602 672.194 211.266 672.141 208.694C672.089 204.599 671.984 200.583 671.826 196.645C671.669 192.656 671.433 188.692 671.118 184.755C670.803 180.765 670.409 176.749 669.937 172.706C669.517 168.664 669.018 164.49 668.441 160.185C667.811 155.408 667.154 150.998 666.472 146.956C665.842 142.861 665.238 139.107 664.661 135.695C664.136 132.23 663.69 129.107 663.322 126.324C662.955 123.542 662.771 121.074 662.771 118.922C662.771 116.927 662.955 115.116 663.322 113.488C663.742 111.808 664.372 110.365 665.212 109.157C666.104 107.95 667.233 107.031 668.598 106.401C669.963 105.719 671.59 105.377 673.48 105.377C676.052 105.377 678.152 105.902 679.779 106.952C681.407 108.002 682.667 109.472 683.559 111.362C684.504 113.2 685.134 115.431 685.449 118.056C685.816 120.628 686 123.437 686 126.482C686 130.261 685.869 134.54 685.606 139.317C685.396 144.042 685.081 148.977 684.661 154.122C684.294 159.267 683.848 164.464 683.323 169.714C682.85 174.964 682.325 179.977 681.748 184.755C681.223 189.532 680.698 193.942 680.173 197.984C679.648 201.974 679.176 205.334 678.756 208.064C677.811 214.101 676.945 218.616 676.157 221.608C675.422 224.601 674.582 226.044 673.638 225.939Z" fill="#FFE600"/>
</g>
<defs>
<filter id="filter0_di_55_107" x="105.371" y="0" width="495.238" height="120.377" filterUnits="userSpaceOnUse" color-interpolation-filters="sRGB">
<feFlood flood-opacity="0" result="BackgroundImageFix"/>
<feColorMatrix in="SourceAlpha" type="matrix" values="0 0 0 0 0 0 0 0 0 0 0 0 0 0 0 0 0 0 127 0" result="hardAlpha"/>
<feOffset dx="5" dy="5"/>
<feGaussianBlur stdDeviation="5"/>
<feComposite in2="hardAlpha" operator="out"/>
<feColorMatrix type="matrix" values="0 0 0 0 0 0 0 0 0 0.0509804 0 0 0 0 0.105882 0 0 0 1 0"/>
<feBlend mode="normal" in2="BackgroundImageFix" result="effect1_dropShadow_55_107"/>
<feBlend mode="normal" in="SourceGraphic" in2="effect1_dropShadow_55_107" result="shape"/>
<feColorMatrix in="SourceAlpha" type="matrix" values="0 0 0 0 0 0 0 0 0 0 0 0 0 0 0 0 0 0 127 0" result="hardAlpha"/>
<feOffset/>
<feGaussianBlur stdDeviation="5"/>
<feComposite in2="hardAlpha" operator="arithmetic" k2="-1" k3="1"/>
<feColorMatrix type="matrix" values="0 0 0 0 1 0 0 0 0 0.36 0 0 0 0 0 0 0 0 1 0"/>
<feBlend mode="normal" in2="shape" result="effect2_innerShadow_55_107"/>
</filter>
<filter id="filter1_di_55_107" x="0" y="95.3773" width="706" height="209.623" filterUnits="userSpaceOnUse" color-interpolation-filters="sRGB">
<feFlood flood-opacity="0" result="BackgroundImageFix"/>
<feColorMatrix in="SourceAlpha" type="matrix" values="0 0 0 0 0 0 0 0 0 0 0 0 0 0 0 0 0 0 127 0" result="hardAlpha"/>
<feOffset dx="5" dy="5"/>
<feGaussianBlur stdDeviation="7.5"/>
<feComposite in2="hardAlpha" operator="out"/>
<feColorMatrix type="matrix" values="0 0 0 0 0 0 0 0 0 0.0509804 0 0 0 0 0.105882 0 0 0 1 0"/>
<feBlend mode="normal" in2="BackgroundImageFix" result="effect1_dropShadow_55_107"/>
<feBlend mode="normal" in="SourceGraphic" in2="effect1_dropShadow_55_107" result="shape"/>
<feColorMatrix in="SourceAlpha" type="matrix" values="0 0 0 0 0 0 0 0 0 0 0 0 0 0 0 0 0 0 127 0" result="hardAlpha"/>
<feOffset/>
<feGaussianBlur stdDeviation="7.5"/>
<feComposite in2="hardAlpha" operator="arithmetic" k2="-1" k3="1"/>
<feColorMatrix type="matrix" values="0 0 0 0 1 0 0 0 0 0.36 0 0 0 0 0 0 0 0 1 0"/>
<feBlend mode="normal" in2="shape" result="effect2_innerShadow_55_107"/>
</filter>
</defs>
</svg>
